<?xml version="1.0" encoding="utf-8" standalone="no"?>
<!DOCTYPE svg PUBLIC "-//W3C//DTD SVG 1.1//EN"
  "http://www.w3.org/Graphics/SVG/1.1/DTD/svg11.dtd">
<svg xmlns:xlink="http://www.w3.org/1999/xlink" width="1164.4pt" height="660.4pt" viewBox="0 0 1164.4 660.4" xmlns="http://www.w3.org/2000/svg" version="1.1">
 <metadata>
  <rdf:RDF xmlns:dc="http://purl.org/dc/elements/1.1/" xmlns:cc="http://creativecommons.org/ns#" xmlns:rdf="http://www.w3.org/1999/02/22-rdf-syntax-ns#">
   <cc:Work>
    <dc:type rdf:resource="http://purl.org/dc/dcmitype/StillImage"/>
    <dc:date>2026-05-22T08:56:43.668687</dc:date>
    <dc:format>image/svg+xml</dc:format>
    <dc:creator>
     <cc:Agent>
      <dc:title>Matplotlib v3.10.8, https://matplotlib.org/</dc:title>
     </cc:Agent>
    </dc:creator>
   </cc:Work>
  </rdf:RDF>
 </metadata>
 <defs>
  <style type="text/css">*{stroke-linejoin: round; stroke-linecap: butt}</style>
 </defs>
 <g id="figure_1">
  <g id="patch_1">
   <path d="M 0 660.4 
L 1164.4 660.4 
L 1164.4 0 
L 0 0 
z
" style="fill: #161a25"/>
  </g>
  <g id="axes_1">
   <g id="patch_2">
    <path d="M 198.866667 410.662889 
C 220.234578 410.662889 240.730191 402.184811 255.839586 387.095854 
C 270.948981 372.006897 279.438542 351.539008 279.438542 330.2 
C 279.438542 308.860992 270.948981 288.393103 255.839586 273.304146 
C 240.730191 258.215189 220.234578 249.737111 198.866667 249.737111 
C 177.498756 249.737111 157.003142 258.215189 141.893747 273.304146 
C 126.784353 288.393103 118.294792 308.860992 118.294792 330.2 
C 118.294792 351.539008 126.784353 372.006897 141.893747 387.095854 
C 157.003142 402.184811 177.498756 410.662889 198.866667 410.662889 
z
" clip-path="url(#pe166bf8058)" style="fill: #53d7f7; opacity: 0.25"/>
   </g>
   <g id="patch_3">
    <path d="M 198.866667 419.979644 
C 222.708757 419.979644 245.577547 410.519895 262.43645 393.683795 
C 279.295354 376.847696 288.767917 354.00984 288.767917 330.2 
C 288.767917 306.39016 279.295354 283.552304 262.43645 266.716205 
C 245.577547 249.880105 222.708757 240.420356 198.866667 240.420356 
C 175.024576 240.420356 152.155787 249.880105 135.296883 266.716205 
C 118.43798 283.552304 108.965417 306.39016 108.965417 330.2 
C 108.965417 354.00984 118.43798 376.847696 135.296883 393.683795 
C 152.155787 410.519895 175.024576 419.979644 198.866667 419.979644 
z
" clip-path="url(#pe166bf8058)" style="fill: #53d7f7; opacity: 0.2"/>
   </g>
   <g id="patch_4">
    <path d="M 198.866667 429.2964 
C 225.182936 429.2964 250.424902 418.854978 269.033315 400.271736 
C 287.641727 381.688495 298.097292 356.480672 298.097292 330.2 
C 298.097292 303.919328 287.641727 278.711505 269.033315 260.128264 
C 250.424902 241.545022 225.182936 231.1036 198.866667 231.1036 
C 172.550397 231.1036 147.308431 241.545022 128.700019 260.128264 
C 110.091606 278.711505 99.636042 303.919328 99.636042 330.2 
C 99.636042 356.480672 110.091606 381.688495 128.700019 400.271736 
C 147.308431 418.854978 172.550397 429.2964 198.866667 429.2964 
z
" clip-path="url(#pe166bf8058)" style="fill: #53d7f7; opacity: 0.15"/>
   </g>
   <g id="patch_5">
    <path d="M 198.866667 438.613156 
C 227.657115 438.613156 255.272257 427.190062 275.630179 406.859677 
C 295.9881 386.529293 307.426667 358.951505 307.426667 330.2 
C 307.426667 301.448495 295.9881 273.870707 275.630179 253.540323 
C 255.272257 233.209938 227.657115 221.786844 198.866667 221.786844 
C 170.076218 221.786844 142.461076 233.209938 122.103155 253.540323 
C 101.745233 273.870707 90.306667 301.448495 90.306667 330.2 
C 90.306667 358.951505 101.745233 386.529293 122.103155 406.859677 
C 142.461076 427.190062 170.076218 438.613156 198.866667 438.613156 
z
" clip-path="url(#pe166bf8058)" style="fill: #53d7f7; opacity: 0.1"/>
   </g>
   <g id="patch_6">
    <path d="M 198.866667 447.929911 
C 230.131294 447.929911 260.119613 435.525145 282.227043 413.447618 
C 304.334473 391.370092 316.756042 361.422337 316.756042 330.2 
C 316.756042 298.977663 304.334473 269.029908 282.227043 246.952382 
C 260.119613 224.874855 230.131294 212.470089 198.866667 212.470089 
C 167.602039 212.470089 137.61372 224.874855 115.50629 246.952382 
C 93.39886 269.029908 80.977292 298.977663 80.977292 330.2 
C 80.977292 361.422337 93.39886 391.370092 115.50629 413.447618 
C 137.61372 435.525145 167.602039 447.929911 198.866667 447.929911 
z
" clip-path="url(#pe166bf8058)" style="fill: #53d7f7; opacity: 0.05"/>
   </g>
   <g id="patch_7">
    <path d="M 198.866667 457.246667 
C 232.605474 457.246667 264.966968 443.860228 288.823907 420.03556 
C 312.680847 396.210891 326.085417 363.89317 326.085417 330.2 
C 326.085417 296.50683 312.680847 264.189109 288.823907 240.36444 
C 264.966968 216.539772 232.605474 203.153333 198.866667 203.153333 
C 165.12786 203.153333 132.766365 216.539772 108.909426 240.36444 
C 85.052487 264.189109 71.647917 296.50683 71.647917 330.2 
C 71.647917 363.89317 85.052487 396.210891 108.909426 420.03556 
C 132.766365 443.860228 165.12786 457.246667 198.866667 457.246667 
L 198.866667 457.246667 
z
" clip-path="url(#pe166bf8058)" style="fill: none; opacity: 0"/>
   </g>
   <g id="patch_8">
    <path d="M 198.866667 427.982867 
C 224.834111 427.982867 249.741492 417.679847 268.103248 399.342928 
C 286.465004 381.006009 296.781979 356.132319 296.781979 330.2 
C 296.781979 304.267681 286.465004 279.393991 268.103248 261.057072 
C 249.741492 242.720153 224.834111 232.417133 198.866667 232.417133 
C 172.899222 232.417133 147.991841 242.720153 129.630085 261.057072 
C 111.268329 279.393991 100.951354 304.267681 100.951354 330.2 
C 100.951354 356.132319 111.268329 381.006009 129.630085 399.342928 
C 147.991841 417.679847 172.899222 427.982867 198.866667 427.982867 
z
" clip-path="url(#pe166bf8058)" style="fill: #53d7f7; opacity: 0.25"/>
   </g>
   <g id="patch_9">
    <path d="M 198.866667 439.305093 
C 227.840868 439.305093 255.632261 427.809092 276.120115 407.348951 
C 296.60797 386.88881 308.119542 359.135009 308.119542 330.2 
C 308.119542 301.264991 296.60797 273.51119 276.120115 253.051049 
C 255.632261 232.590908 227.840868 221.094907 198.866667 221.094907 
C 169.892466 221.094907 142.101072 232.590908 121.613218 253.051049 
C 101.125364 273.51119 89.613792 301.264991 89.613792 330.2 
C 89.613792 359.135009 101.125364 386.88881 121.613218 407.348951 
C 142.101072 427.809092 169.892466 439.305093 198.866667 439.305093 
z
" clip-path="url(#pe166bf8058)" style="fill: #53d7f7; opacity: 0.2"/>
   </g>
   <g id="patch_10">
    <path d="M 198.866667 450.62732 
C 230.847625 450.62732 261.523031 437.938338 284.136983 415.354975 
C 306.750935 392.771611 319.457104 362.137699 319.457104 330.2 
C 319.457104 298.262301 306.750935 267.628389 284.136983 245.045025 
C 261.523031 222.461662 230.847625 209.77268 198.866667 209.77268 
C 166.885709 209.77268 136.210303 222.461662 113.596351 245.045025 
C 90.982398 267.628389 78.276229 298.262301 78.276229 330.2 
C 78.276229 362.137699 90.982398 392.771611 113.596351 415.354975 
C 136.210303 437.938338 166.885709 450.62732 198.866667 450.62732 
z
" clip-path="url(#pe166bf8058)" style="fill: #53d7f7; opacity: 0.15"/>
   </g>
   <g id="patch_11">
    <path d="M 198.866667 461.949547 
C 233.854381 461.949547 267.4138 448.067583 292.15385 423.360998 
C 316.8939 398.654412 330.794667 365.140388 330.794667 330.2 
C 330.794667 295.259612 316.8939 261.745588 292.15385 237.039002 
C 267.4138 212.332417 233.854381 198.450453 198.866667 198.450453 
C 163.878952 198.450453 130.319533 212.332417 105.579483 237.039002 
C 80.839433 261.745588 66.938667 295.259612 66.938667 330.2 
C 66.938667 365.140388 80.839433 398.654412 105.579483 423.360998 
C 130.319533 448.067583 163.878952 461.949547 198.866667 461.949547 
z
" clip-path="url(#pe166bf8058)" style="fill: #53d7f7; opacity: 0.1"/>
   </g>
   <g id="patch_12">
    <path d="M 198.866667 473.271773 
C 236.861138 473.271773 273.304569 458.196829 300.170717 431.367021 
C 327.036866 404.537214 342.132229 368.143078 342.132229 330.2 
C 342.132229 292.256922 327.036866 255.862786 300.170717 229.032979 
C 273.304569 202.203171 236.861138 187.128227 198.866667 187.128227 
C 160.872195 187.128227 124.428764 202.203171 97.562616 229.032979 
C 70.696468 255.862786 55.601104 292.256922 55.601104 330.2 
C 55.601104 368.143078 70.696468 404.537214 97.562616 431.367021 
C 124.428764 458.196829 160.872195 473.271773 198.866667 473.271773 
z
" clip-path="url(#pe166bf8058)" style="fill: #53d7f7; opacity: 0.05"/>
   </g>
   <g id="patch_13">
    <path d="M 198.866667 484.594 
C 239.867895 484.594 279.195338 468.326074 308.187585 439.373044 
C 337.179831 410.420015 353.469792 371.145767 353.469792 330.2 
C 353.469792 289.254233 337.179831 249.979985 308.187585 221.026956 
C 279.195338 192.073926 239.867895 175.806 198.866667 175.806 
C 157.865439 175.806 118.537995 192.073926 89.545749 221.026956 
C 60.553502 249.979985 44.263542 289.254233 44.263542 330.2 
C 44.263542 371.145767 60.553502 410.420015 89.545749 439.373044 
C 118.537995 468.326074 157.865439 484.594 198.866667 484.594 
L 198.866667 484.594 
z
" clip-path="url(#pe166bf8058)" style="fill: none; opacity: 0"/>
   </g>
   <g id="patch_14">
    <path d="M 198.866667 445.302844 
C 229.433644 445.302844 258.752793 433.174883 280.36691 411.590002 
C 301.981028 390.005121 314.125417 360.725631 314.125417 330.2 
C 314.125417 299.674369 301.981028 270.394879 280.36691 248.809998 
C 258.752793 227.225117 229.433644 215.097156 198.866667 215.097156 
C 168.299689 215.097156 138.98054 227.225117 117.366423 248.809998 
C 95.752306 270.394879 83.607917 299.674369 83.607917 330.2 
C 83.607917 360.725631 95.752306 390.005121 117.366423 411.590002 
C 138.98054 433.174883 168.299689 445.302844 198.866667 445.302844 
z
" clip-path="url(#pe166bf8058)" style="fill: #53d7f7; opacity: 0.25"/>
   </g>
   <g id="patch_15">
    <path d="M 198.866667 458.630542 
C 232.972979 458.630542 265.686976 445.09829 289.803781 421.014107 
C 313.920585 396.929925 327.471167 364.260178 327.471167 330.2 
C 327.471167 296.139822 313.920585 263.470075 289.803781 239.385893 
C 265.686976 215.30171 232.972979 201.769458 198.866667 201.769458 
C 164.760355 201.769458 132.046357 215.30171 107.929553 239.385893 
C 83.812748 263.470075 70.262167 296.139822 70.262167 330.2 
C 70.262167 364.260178 83.812748 396.929925 107.929553 421.014107 
C 132.046357 445.09829 164.760355 458.630542 198.866667 458.630542 
z
" clip-path="url(#pe166bf8058)" style="fill: #53d7f7; opacity: 0.2"/>
   </g>
   <g id="patch_16">
    <path d="M 198.866667 471.95824 
C 236.512313 471.95824 272.621159 457.021698 299.240651 430.438213 
C 325.860143 403.854728 340.816917 367.794725 340.816917 330.2 
C 340.816917 292.605275 325.860143 256.545272 299.240651 229.961787 
C 272.621159 203.378302 236.512313 188.44176 198.866667 188.44176 
C 161.22102 188.44176 125.112174 203.378302 98.492682 229.961787 
C 71.87319 256.545272 56.916417 292.605275 56.916417 330.2 
C 56.916417 367.794725 71.87319 403.854728 98.492682 430.438213 
C 125.112174 457.021698 161.22102 471.95824 198.866667 471.95824 
z
" clip-path="url(#pe166bf8058)" style="fill: #53d7f7; opacity: 0.15"/>
   </g>
   <g id="patch_17">
    <path d="M 198.866667 485.285938 
C 240.051647 485.285938 279.555342 468.945105 308.677521 439.862318 
C 337.7997 410.779532 354.162667 371.329271 354.162667 330.2 
C 354.162667 289.070729 337.7997 249.620468 308.677521 220.537682 
C 279.555342 191.454895 240.051647 175.114062 198.866667 175.114062 
C 157.681686 175.114062 118.177991 191.454895 89.055812 220.537682 
C 59.933633 249.620468 43.570667 289.070729 43.570667 330.2 
C 43.570667 371.329271 59.933633 410.779532 89.055812 439.862318 
C 118.177991 468.945105 157.681686 485.285938 198.866667 485.285938 
z
" clip-path="url(#pe166bf8058)" style="fill: #53d7f7; opacity: 0.1"/>
   </g>
   <g id="patch_18">
    <path d="M 198.866667 498.613636 
C 243.590982 498.613636 286.489525 480.868512 318.114392 449.286424 
C 349.739258 417.704335 367.508417 374.863818 367.508417 330.2 
C 367.508417 285.536182 349.739258 242.695665 318.114392 211.113576 
C 286.489525 179.531488 243.590982 161.786364 198.866667 161.786364 
C 154.142352 161.786364 111.243808 179.531488 79.618942 211.113576 
C 47.994075 242.695665 30.224917 285.536182 30.224917 330.2 
C 30.224917 374.863818 47.994075 417.704335 79.618942 449.286424 
C 111.243808 480.868512 154.142352 498.613636 198.866667 498.613636 
z
" clip-path="url(#pe166bf8058)" style="fill: #53d7f7; opacity: 0.05"/>
   </g>
   <g id="patch_19">
    <path d="M 198.866667 511.941333 
C 247.130316 511.941333 293.423708 492.79192 327.551262 458.710529 
C 361.678816 424.629138 380.854167 378.398365 380.854167 330.2 
C 380.854167 282.001635 361.678816 235.770862 327.551262 201.689471 
C 293.423708 167.60808 247.130316 148.458667 198.866667 148.458667 
C 150.603018 148.458667 104.309625 167.60808 70.182071 201.689471 
C 36.054518 235.770862 16.879167 282.001635 16.879167 330.2 
C 16.879167 378.398365 36.054518 424.629138 70.182071 458.710529 
C 104.309625 492.79192 150.603018 511.941333 198.866667 511.941333 
L 198.866667 511.941333 
z
" clip-path="url(#pe166bf8058)" style="fill: none; opacity: 0"/>
   </g>
   <g id="patch_20">
    <path d="M 198.866667 462.622822 
C 234.033178 462.622822 267.764094 448.669918 292.630573 423.837076 
C 317.497051 399.004233 331.468854 365.318943 331.468854 330.2 
C 331.468854 295.081057 317.497051 261.395767 292.630573 236.562924 
C 267.764094 211.730082 234.033178 197.777178 198.866667 197.777178 
C 163.700155 197.777178 129.969239 211.730082 105.102761 236.562924 
C 80.236282 261.395767 66.264479 295.081057 66.264479 330.2 
C 66.264479 365.318943 80.236282 399.004233 105.102761 423.837076 
C 129.969239 448.669918 163.700155 462.622822 198.866667 462.622822 
z
" clip-path="url(#pe166bf8058)" style="fill: #53d7f7; opacity: 0.25"/>
   </g>
   <g id="patch_21">
    <path d="M 198.866667 477.955991 
C 238.10509 477.955991 275.741691 462.387488 303.487446 434.679263 
C 331.233201 406.971039 346.822792 369.385347 346.822792 330.2 
C 346.822792 291.014653 331.233201 253.428961 303.487446 225.720737 
C 275.741691 198.012512 238.10509 182.444009 198.866667 182.444009 
C 159.628244 182.444009 121.991642 198.012512 94.245887 225.720737 
C 66.500132 253.428961 50.910542 291.014653 50.910542 330.2 
C 50.910542 369.385347 66.500132 406.971039 94.245887 434.679263 
C 121.991642 462.387488 159.628244 477.955991 198.866667 477.955991 
z
" clip-path="url(#pe166bf8058)" style="fill: #53d7f7; opacity: 0.2"/>
   </g>
   <g id="patch_22">
    <path d="M 198.866667 493.28916 
C 242.177002 493.28916 283.719288 476.105057 314.344319 445.521451 
C 344.969351 414.937845 362.176729 373.451751 362.176729 330.2 
C 362.176729 286.948249 344.969351 245.462155 314.344319 214.878549 
C 283.719288 184.294943 242.177002 167.11084 198.866667 167.11084 
C 155.556332 167.11084 114.014045 184.294943 83.389014 214.878549 
C 52.763983 245.462155 35.556604 286.948249 35.556604 330.2 
C 35.556604 373.451751 52.763983 414.937845 83.389014 445.521451 
C 114.014045 476.105057 155.556332 493.28916 198.866667 493.28916 
z
" clip-path="url(#pe166bf8058)" style="fill: #53d7f7; opacity: 0.15"/>
   </g>
   <g id="patch_23">
    <path d="M 198.866667 508.622329 
C 246.248913 508.622329 291.696885 489.822627 325.201193 456.363639 
C 358.705501 422.904651 377.530667 377.518155 377.530667 330.2 
C 377.530667 282.881845 358.705501 237.495349 325.201193 204.036361 
C 291.696885 170.577373 246.248913 151.777671 198.866667 151.777671 
C 151.48442 151.777671 106.036449 170.577373 72.532141 204.036361 
C 39.027833 237.495349 20.202667 282.881845 20.202667 330.2 
C 20.202667 377.518155 39.027833 422.904651 72.532141 456.363639 
C 106.036449 489.822627 151.48442 508.622329 198.866667 508.622329 
z
" clip-path="url(#pe166bf8058)" style="fill: #53d7f7; opacity: 0.1"/>
   </g>
   <g id="patch_24">
    <path d="M 198.866667 523.955498 
C 250.320825 523.955498 299.674482 503.540196 336.058066 467.205826 
C 372.44165 430.871456 392.884604 381.584559 392.884604 330.2 
C 392.884604 278.815441 372.44165 229.528544 336.058066 193.194174 
C 299.674482 156.859804 250.320825 136.444502 198.866667 136.444502 
C 147.412508 136.444502 98.058852 156.859804 61.675267 193.194174 
C 25.291683 229.528544 4.848729 278.815441 4.848729 330.2 
C 4.848729 381.584559 25.291683 430.871456 61.675267 467.205826 
C 98.058852 503.540196 147.412508 523.955498 198.866667 523.955498 
z
" clip-path="url(#pe166bf8058)" style="fill: #53d7f7; opacity: 0.05"/>
   </g>
   <g id="patch_25">
    <path d="M 198.866667 539.288667 
C 254.392737 539.288667 307.652078 517.257766 346.914939 478.048014 
C 386.1778 438.838262 408.238542 385.650963 408.238542 330.2 
C 408.238542 274.749037 386.1778 221.561738 346.914939 182.351986 
C 307.652078 143.142234 254.392737 121.111333 198.866667 121.111333 
C 143.340596 121.111333 90.081255 143.142234 50.818394 182.351986 
C 11.555533 221.561738 -10.505208 274.749037 -10.505208 330.2 
C -10.505208 385.650963 11.555533 438.838262 50.818394 478.048014 
C 90.081255 517.257766 143.340596 539.288667 198.866667 539.288667 
L 198.866667 539.288667 
z
" clip-path="url(#pe166bf8058)" style="fill: none; opacity: 0"/>
   </g>
   <g id="patch_26">
    <path d="M 198.866667 479.9428 
C 238.632711 479.9428 276.775395 464.164954 304.894235 436.084149 
C 333.013075 408.003345 348.812292 369.912255 348.812292 330.2 
C 348.812292 290.487745 333.013075 252.396655 304.894235 224.315851 
C 276.775395 196.235046 238.632711 180.4572 198.866667 180.4572 
C 159.100622 180.4572 120.957938 196.235046 92.839098 224.315851 
C 64.720259 252.396655 48.921042 290.487745 48.921042 330.2 
C 48.921042 369.912255 64.720259 408.003345 92.839098 436.084149 
C 120.957938 464.164954 159.100622 479.9428 198.866667 479.9428 
z
" clip-path="url(#pe166bf8058)" style="fill: #53d7f7; opacity: 0.25"/>
   </g>
   <g id="patch_27">
    <path d="M 198.866667 497.28144 
C 243.237201 497.28144 285.796406 479.676685 317.171111 448.344419 
C 348.545817 417.012153 366.174417 374.510516 366.174417 330.2 
C 366.174417 285.889484 348.545817 243.387847 317.171111 212.055581 
C 285.796406 180.723315 243.237201 163.11856 198.866667 163.11856 
C 154.496133 163.11856 111.936928 180.723315 80.562222 212.055581 
C 49.187517 243.387847 31.558917 285.889484 31.558917 330.2 
C 31.558917 374.510516 49.187517 417.012153 80.562222 448.344419 
C 111.936928 479.676685 154.496133 497.28144 198.866667 497.28144 
z
" clip-path="url(#pe166bf8058)" style="fill: #53d7f7; opacity: 0.2"/>
   </g>
   <g id="patch_28">
    <path d="M 198.866667 514.62008 
C 247.84169 514.62008 294.817416 495.188417 329.447988 460.604689 
C 364.078559 426.020961 383.536542 379.108777 383.536542 330.2 
C 383.536542 281.291223 364.078559 234.379039 329.447988 199.795311 
C 294.817416 165.211583 247.84169 145.77992 198.866667 145.77992 
C 149.891643 145.77992 102.915917 165.211583 68.285346 199.795311 
C 33.654775 234.379039 14.196792 281.291223 14.196792 330.2 
C 14.196792 379.108777 33.654775 426.020961 68.285346 460.604689 
C 102.915917 495.188417 149.891643 514.62008 198.866667 514.62008 
z
" clip-path="url(#pe166bf8058)" style="fill: #53d7f7; opacity: 0.15"/>
   </g>
   <g id="patch_29">
    <path d="M 198.866667 531.95872 
C 252.446179 531.95872 303.838427 510.700148 341.724864 472.864959 
C 379.611301 435.02977 400.898667 383.707038 400.898667 330.2 
C 400.898667 276.692962 379.611301 225.37023 341.724864 187.535041 
C 303.838427 149.699852 252.446179 128.44128 198.866667 128.44128 
C 145.287154 128.44128 93.894906 149.699852 56.008469 187.535041 
C 18.122033 225.37023 -3.165333 276.692962 -3.165333 330.2 
C -3.165333 383.707038 18.122033 435.02977 56.008469 472.864959 
C 93.894906 510.700148 145.287154 531.95872 198.866667 531.95872 
z
" clip-path="url(#pe166bf8058)" style="fill: #53d7f7; opacity: 0.1"/>
   </g>
   <g id="patch_30">
    <path d="M 198.866667 549.29736 
C 257.050669 549.29736 312.859438 526.21188 354.00174 485.125229 
C 395.144043 444.038578 418.260792 388.305299 418.260792 330.2 
C 418.260792 272.094701 395.144043 216.361422 354.00174 175.274771 
C 312.859438 134.18812 257.050669 111.10264 198.866667 111.10264 
C 140.682665 111.10264 84.873896 134.18812 43.731593 175.274771 
C 2.589291 216.361422 -20.527458 272.094701 -20.527458 330.2 
C -20.527458 388.305299 2.589291 444.038578 43.731593 485.125229 
C 84.873896 526.21188 140.682665 549.29736 198.866667 549.29736 
z
" clip-path="url(#pe166bf8058)" style="fill: #53d7f7; opacity: 0.05"/>
   </g>
   <g id="patch_31">
    <path d="M 198.866667 566.636 
C 261.655158 566.636 321.880448 541.723612 366.278617 497.385499 
C 410.676785 453.047386 435.622917 392.90356 435.622917 330.2 
C 435.622917 267.49644 410.676785 207.352614 366.278617 163.014501 
C 321.880448 118.676388 261.655158 93.764 198.866667 93.764 
C 136.078175 93.764 75.852885 118.676388 31.454717 163.014501 
C -12.943451 207.352614 -37.889583 267.49644 -37.889583 330.2 
C -37.889583 392.90356 -12.943451 453.047386 31.454717 497.385499 
C 75.852885 541.723612 136.078175 566.636 198.866667 566.636 
L 198.866667 566.636 
z
" clip-path="url(#pe166bf8058)" style="fill: none; opacity: 0"/>
   </g>
   <g id="patch_32">
    <path d="M 198.866667 497.262778 
C 243.232245 497.262778 285.786696 479.65999 317.157897 448.331223 
C 348.529098 417.002456 366.155729 374.505567 366.155729 330.2 
C 366.155729 285.894433 348.529098 243.397544 317.157897 212.068777 
C 285.786696 180.74001 243.232245 163.137222 198.866667 163.137222 
C 154.501089 163.137222 111.946637 180.74001 80.575436 212.068777 
C 49.204235 243.397544 31.577604 285.894433 31.577604 330.2 
C 31.577604 374.505567 49.204235 417.002456 80.575436 448.331223 
C 111.946637 479.65999 154.501089 497.262778 198.866667 497.262778 
z
" clip-path="url(#pe166bf8058)" style="fill: #53d7f7; opacity: 0.25"/>
   </g>
   <g id="patch_33">
    <path d="M 198.866667 516.606889 
C 248.369312 516.606889 295.851121 496.965883 330.854777 462.009575 
C 365.858432 427.053267 385.526042 379.635685 385.526042 330.2 
C 385.526042 280.764315 365.858432 233.346733 330.854777 198.390425 
C 295.851121 163.434117 248.369312 143.793111 198.866667 143.793111 
C 149.364022 143.793111 101.882213 163.434117 66.878557 198.390425 
C 31.874901 233.346733 12.207292 280.764315 12.207292 330.2 
C 12.207292 379.635685 31.874901 427.053267 66.878557 462.009575 
C 101.882213 496.965883 149.364022 516.606889 198.866667 516.606889 
z
" clip-path="url(#pe166bf8058)" style="fill: #53d7f7; opacity: 0.2"/>
   </g>
   <g id="patch_34">
    <path d="M 198.866667 535.951 
C 253.506378 535.951 305.915545 514.271777 344.551656 475.687927 
C 383.187767 437.104078 404.896354 384.765803 404.896354 330.2 
C 404.896354 275.634197 383.187767 223.295922 344.551656 184.712073 
C 305.915545 146.128223 253.506378 124.449 198.866667 124.449 
C 144.226955 124.449 91.817788 146.128223 53.181678 184.712073 
C 14.545567 223.295922 -7.163021 275.634197 -7.163021 330.2 
C -7.163021 384.765803 14.545567 437.104078 53.181678 475.687927 
C 91.817788 514.271777 144.226955 535.951 198.866667 535.951 
z
" clip-path="url(#pe166bf8058)" style="fill: #53d7f7; opacity: 0.15"/>
   </g>
   <g id="patch_35">
    <path d="M 198.866667 555.295111 
C 258.643445 555.295111 315.97997 531.57767 358.248535 489.366279 
C 400.517101 447.154889 424.266667 389.895921 424.266667 330.2 
C 424.266667 270.504079 400.517101 213.245111 358.248535 171.033721 
C 315.97997 128.82233 258.643445 105.104889 198.866667 105.104889 
C 139.089888 105.104889 81.753364 128.82233 39.484798 171.033721 
C -2.783767 213.245111 -26.533333 270.504079 -26.533333 330.2 
C -26.533333 389.895921 -2.783767 447.154889 39.484798 489.366279 
C 81.753364 531.57767 139.089888 555.295111 198.866667 555.295111 
z
" clip-path="url(#pe166bf8058)" style="fill: #53d7f7; opacity: 0.1"/>
   </g>
   <g id="patch_36">
    <path d="M 198.866667 574.639222 
C 263.780512 574.639222 326.044394 548.883564 371.945414 503.044632 
C 417.846435 457.205699 443.636979 395.026039 443.636979 330.2 
C 443.636979 265.373961 417.846435 203.194301 371.945414 157.355368 
C 326.044394 111.516436 263.780512 85.760778 198.866667 85.760778 
C 133.952821 85.760778 71.688939 111.516436 25.787919 157.355368 
C -20.113102 203.194301 -45.903646 265.373961 -45.903646 330.2 
C -45.903646 395.026039 -20.113102 457.205699 25.787919 503.044632 
C 71.688939 548.883564 133.952821 574.639222 198.866667 574.639222 
z
" clip-path="url(#pe166bf8058)" style="fill: #53d7f7; opacity: 0.05"/>
   </g>
   <g id="patch_37">
    <path d="M 198.866667 593.983333 
C 268.917579 593.983333 336.108818 566.189457 385.642294 516.722984 
C 435.175769 467.25651 463.007292 400.156158 463.007292 330.2 
C 463.007292 260.243842 435.175769 193.14349 385.642294 143.677016 
C 336.108818 94.210543 268.917579 66.416667 198.866667 66.416667 
C 128.815754 66.416667 61.624515 94.210543 12.09104 143.677016 
C -37.442436 193.14349 -65.273958 260.243842 -65.273958 330.2 
C -65.273958 400.156158 -37.442436 467.25651 12.09104 516.722984 
C 61.624515 566.189457 128.815754 593.983333 198.866667 593.983333 
L 198.866667 593.983333 
z
" clip-path="url(#pe166bf8058)" style="fill: none; opacity: 0"/>
   </g>
   <g id="patch_38">
    <path d="M 198.866667 414.897778 
C 221.359205 414.897778 242.933534 405.973486 258.838161 390.090373 
C 274.742787 374.20726 283.679167 352.662113 283.679167 330.2 
C 283.679167 307.737887 274.742787 286.19274 258.838161 270.309627 
C 242.933534 254.426514 221.359205 245.502222 198.866667 245.502222 
C 176.374129 245.502222 154.799799 254.426514 138.895173 270.309627 
C 122.990547 286.19274 114.054167 307.737887 114.054167 330.2 
C 114.054167 352.662113 122.990547 374.20726 138.895173 390.090373 
C 154.799799 405.973486 176.374129 414.897778 198.866667 414.897778 
L 198.866667 414.897778 
z
" clip-path="url(#pe166bf8058)" style="fill: none; opacity: 0.85; stroke: #53d7f7; stroke-width: 2; stroke-linejoin: miter"/>
   </g>
   <g id="patch_39">
    <path d="M 198.866667 433.129333 
C 226.200819 433.129333 252.419114 422.284049 271.747279 402.98203 
C 291.075443 383.68001 301.935417 357.497178 301.935417 330.2 
C 301.935417 302.902822 291.075443 276.71999 271.747279 257.41797 
C 252.419114 238.115951 226.200819 227.270667 198.866667 227.270667 
C 171.532515 227.270667 145.314219 238.115951 125.986055 257.41797 
C 106.65789 276.71999 95.797917 302.902822 95.797917 330.2 
C 95.797917 357.497178 106.65789 383.68001 125.986055 402.98203 
C 145.314219 422.284049 171.532515 433.129333 198.866667 433.129333 
L 198.866667 433.129333 
z
" clip-path="url(#pe166bf8058)" style="fill: none; opacity: 0.85; stroke: #53d7f7; stroke-width: 2; stroke-linejoin: miter"/>
   </g>
   <g id="patch_40">
    <path d="M 198.866667 451.360889 
C 231.042433 451.360889 261.904694 438.594613 284.656397 415.873686 
C 307.408099 393.152759 320.191667 362.332243 320.191667 330.2 
C 320.191667 298.067757 307.408099 267.247241 284.656397 244.526314 
C 261.904694 221.805387 231.042433 209.039111 198.866667 209.039111 
C 166.690901 209.039111 135.828639 221.805387 113.076936 244.526314 
C 90.325234 267.247241 77.541667 298.067757 77.541667 330.2 
C 77.541667 362.332243 90.325234 393.152759 113.076936 415.873686 
C 135.828639 438.594613 166.690901 451.360889 198.866667 451.360889 
L 198.866667 451.360889 
z
" clip-path="url(#pe166bf8058)" style="fill: none; opacity: 0.85; stroke: #53d7f7; stroke-width: 2; stroke-linejoin: miter"/>
   </g>
   <g id="patch_41">
    <path d="M 198.866667 469.592444 
C 235.884047 469.592444 271.390275 454.905177 297.565515 428.765343 
C 323.740756 402.625508 338.447917 367.167308 338.447917 330.2 
C 338.447917 293.232692 323.740756 257.774492 297.565515 231.634657 
C 271.390275 205.494823 235.884047 190.807556 198.866667 190.807556 
C 161.849286 190.807556 126.343059 205.494823 100.167818 231.634657 
C 73.992578 257.774492 59.285417 293.232692 59.285417 330.2 
C 59.285417 367.167308 73.992578 402.625508 100.167818 428.765343 
C 126.343059 454.905177 161.849286 469.592444 198.866667 469.592444 
L 198.866667 469.592444 
z
" clip-path="url(#pe166bf8058)" style="fill: none; opacity: 0.85; stroke: #53d7f7; stroke-width: 2; stroke-linejoin: miter"/>
   </g>
   <g id="patch_42">
    <path d="M 198.866667 487.824 
C 240.725661 487.824 280.875855 471.215741 310.474633 441.656999 
C 340.073412 412.098258 356.704167 372.002373 356.704167 330.2 
C 356.704167 288.397627 340.073412 248.301742 310.474633 218.743001 
C 280.875855 189.184259 240.725661 172.576 198.866667 172.576 
C 157.007672 172.576 116.857479 189.184259 87.2587 218.743001 
C 57.659921 248.301742 41.029167 288.397627 41.029167 330.2 
C 41.029167 372.002373 57.659921 412.098258 87.2587 441.656999 
C 116.857479 471.215741 157.007672 487.824 198.866667 487.824 
L 198.866667 487.824 
z
" clip-path="url(#pe166bf8058)" style="fill: none; opacity: 0.85; stroke: #53d7f7; stroke-width: 2; stroke-linejoin: miter"/>
   </g>
   <g id="patch_43">
    <path d="M 198.866667 506.055556 
C 245.567275 506.055556 290.361435 487.526305 323.383751 454.548656 
C 356.406068 421.571007 374.960417 376.837438 374.960417 330.2 
C 374.960417 283.562562 356.406068 238.828993 323.383751 205.851344 
C 290.361435 172.873695 245.567275 154.344444 198.866667 154.344444 
C 152.166058 154.344444 107.371899 172.873695 74.349582 205.851344 
C 41.327265 238.828993 22.772917 283.562562 22.772917 330.2 
C 22.772917 376.837438 41.327265 421.571007 74.349582 454.548656 
C 107.371899 487.526305 152.166058 506.055556 198.866667 506.055556 
L 198.866667 506.055556 
z
" clip-path="url(#pe166bf8058)" style="fill: none; opacity: 0.85; stroke: #53d7f7; stroke-width: 2; stroke-linejoin: miter"/>
   </g>
   <g id="patch_44">
    <path d="M 394.845833 559.888889 
L 769.554167 559.888889 
L 769.554167 93.333333 
L 394.845833 93.333333 
z
" clip-path="url(#pe166bf8058)" style="fill: #ffc34a; opacity: 0.025"/>
   </g>
   <g id="line2d_1">
    <path d="M 399.158333 310.102222 
L 765.241667 310.102222 
" clip-path="url(#pe166bf8058)" style="fill: none; stroke: #ffc34a; stroke-opacity: 0.17; stroke-width: 2; stroke-linecap: square"/>
   </g>
   <g id="line2d_2">
    <path d="M 399.158333 280.673333 
L 765.241667 280.673333 
" clip-path="url(#pe166bf8058)" style="fill: none; stroke: #ffc34a; stroke-opacity: 0.17; stroke-width: 2; stroke-linecap: square"/>
   </g>
   <g id="line2d_3">
    <path d="M 399.158333 545.533333 
L 399.158333 114.866667 
" clip-path="url(#pe166bf8058)" style="fill: none; stroke: #ffc34a; stroke-opacity: 0.08; stroke-width: 0.5; stroke-linecap: square"/>
   </g>
   <g id="line2d_4">
    <path d="M 420.692647 545.533333 
L 420.692647 114.866667 
" clip-path="url(#pe166bf8058)" style="fill: none; stroke: #ffc34a; stroke-opacity: 0.08; stroke-width: 0.5; stroke-linecap: square"/>
   </g>
   <g id="line2d_5">
    <path d="M 442.226961 545.533333 
L 442.226961 114.866667 
" clip-path="url(#pe166bf8058)" style="fill: none; stroke: #ffc34a; stroke-opacity: 0.08; stroke-width: 0.5; stroke-linecap: square"/>
   </g>
   <g id="line2d_6">
    <path d="M 463.761275 545.533333 
L 463.761275 114.866667 
" clip-path="url(#pe166bf8058)" style="fill: none; stroke: #ffc34a; stroke-opacity: 0.08; stroke-width: 0.5; stroke-linecap: square"/>
   </g>
   <g id="line2d_7">
    <path d="M 485.295588 545.533333 
L 485.295588 114.866667 
" clip-path="url(#pe166bf8058)" style="fill: none; stroke: #ffc34a; stroke-opacity: 0.08; stroke-width: 0.5; stroke-linecap: square"/>
   </g>
   <g id="line2d_8">
    <path d="M 506.829902 545.533333 
L 506.829902 114.866667 
" clip-path="url(#pe166bf8058)" style="fill: none; stroke: #ffc34a; stroke-opacity: 0.08; stroke-width: 0.5; stroke-linecap: square"/>
   </g>
   <g id="line2d_9">
    <path d="M 528.364216 545.533333 
L 528.364216 114.866667 
" clip-path="url(#pe166bf8058)" style="fill: none; stroke: #ffc34a; stroke-opacity: 0.08; stroke-width: 0.5; stroke-linecap: square"/>
   </g>
   <g id="line2d_10">
    <path d="M 549.898529 545.533333 
L 549.898529 114.866667 
" clip-path="url(#pe166bf8058)" style="fill: none; stroke: #ffc34a; stroke-opacity: 0.08; stroke-width: 0.5; stroke-linecap: square"/>
   </g>
   <g id="line2d_11">
    <path d="M 571.432843 545.533333 
L 571.432843 114.866667 
" clip-path="url(#pe166bf8058)" style="fill: none; stroke: #ffc34a; stroke-opacity: 0.08; stroke-width: 0.5; stroke-linecap: square"/>
   </g>
   <g id="line2d_12">
    <path d="M 592.967157 545.533333 
L 592.967157 114.866667 
" clip-path="url(#pe166bf8058)" style="fill: none; stroke: #ffc34a; stroke-opacity: 0.08; stroke-width: 0.5; stroke-linecap: square"/>
   </g>
   <g id="line2d_13">
    <path d="M 614.501471 545.533333 
L 614.501471 114.866667 
" clip-path="url(#pe166bf8058)" style="fill: none; stroke: #ffc34a; stroke-opacity: 0.08; stroke-width: 0.5; stroke-linecap: square"/>
   </g>
   <g id="line2d_14">
    <path d="M 636.035784 545.533333 
L 636.035784 114.866667 
" clip-path="url(#pe166bf8058)" style="fill: none; stroke: #ffc34a; stroke-opacity: 0.08; stroke-width: 0.5; stroke-linecap: square"/>
   </g>
   <g id="line2d_15">
    <path d="M 657.570098 545.533333 
L 657.570098 114.866667 
" clip-path="url(#pe166bf8058)" style="fill: none; stroke: #ffc34a; stroke-opacity: 0.08; stroke-width: 0.5; stroke-linecap: square"/>
   </g>
   <g id="line2d_16">
    <path d="M 679.104412 545.533333 
L 679.104412 114.866667 
" clip-path="url(#pe166bf8058)" style="fill: none; stroke: #ffc34a; stroke-opacity: 0.08; stroke-width: 0.5; stroke-linecap: square"/>
   </g>
   <g id="line2d_17">
    <path d="M 700.638725 545.533333 
L 700.638725 114.866667 
" clip-path="url(#pe166bf8058)" style="fill: none; stroke: #ffc34a; stroke-opacity: 0.08; stroke-width: 0.5; stroke-linecap: square"/>
   </g>
   <g id="line2d_18">
    <path d="M 722.173039 545.533333 
L 722.173039 114.866667 
" clip-path="url(#pe166bf8058)" style="fill: none; stroke: #ffc34a; stroke-opacity: 0.08; stroke-width: 0.5; stroke-linecap: square"/>
   </g>
   <g id="line2d_19">
    <path d="M 743.707353 545.533333 
L 743.707353 114.866667 
" clip-path="url(#pe166bf8058)" style="fill: none; stroke: #ffc34a; stroke-opacity: 0.08; stroke-width: 0.5; stroke-linecap: square"/>
   </g>
   <g id="line2d_20">
    <path d="M 765.241667 545.533333 
L 765.241667 114.866667 
" clip-path="url(#pe166bf8058)" style="fill: none; stroke: #ffc34a; stroke-opacity: 0.08; stroke-width: 0.5; stroke-linecap: square"/>
   </g>
   <g id="line2d_21">
    <path d="M 399.158333 545.533333 
L 765.241667 545.533333 
" clip-path="url(#pe166bf8058)" style="fill: none; stroke: #ffc34a; stroke-opacity: 0.08; stroke-width: 0.5; stroke-linecap: square"/>
   </g>
   <g id="line2d_22">
    <path d="M 399.158333 512.405128 
L 765.241667 512.405128 
" clip-path="url(#pe166bf8058)" style="fill: none; stroke: #ffc34a; stroke-opacity: 0.08; stroke-width: 0.5; stroke-linecap: square"/>
   </g>
   <g id="line2d_23">
    <path d="M 399.158333 479.276923 
L 765.241667 479.276923 
" clip-path="url(#pe166bf8058)" style="fill: none; stroke: #ffc34a; stroke-opacity: 0.08; stroke-width: 0.5; stroke-linecap: square"/>
   </g>
   <g id="line2d_24">
    <path d="M 399.158333 446.148718 
L 765.241667 446.148718 
" clip-path="url(#pe166bf8058)" style="fill: none; stroke: #ffc34a; stroke-opacity: 0.08; stroke-width: 0.5; stroke-linecap: square"/>
   </g>
   <g id="line2d_25">
    <path d="M 399.158333 413.020513 
L 765.241667 413.020513 
" clip-path="url(#pe166bf8058)" style="fill: none; stroke: #ffc34a; stroke-opacity: 0.08; stroke-width: 0.5; stroke-linecap: square"/>
   </g>
   <g id="line2d_26">
    <path d="M 399.158333 379.892308 
L 765.241667 379.892308 
" clip-path="url(#pe166bf8058)" style="fill: none; stroke: #ffc34a; stroke-opacity: 0.08; stroke-width: 0.5; stroke-linecap: square"/>
   </g>
   <g id="line2d_27">
    <path d="M 399.158333 346.764103 
L 765.241667 346.764103 
" clip-path="url(#pe166bf8058)" style="fill: none; stroke: #ffc34a; stroke-opacity: 0.08; stroke-width: 0.5; stroke-linecap: square"/>
   </g>
   <g id="line2d_28">
    <path d="M 399.158333 313.635897 
L 765.241667 313.635897 
" clip-path="url(#pe166bf8058)" style="fill: none; stroke: #ffc34a; stroke-opacity: 0.08; stroke-width: 0.5; stroke-linecap: square"/>
   </g>
   <g id="line2d_29">
    <path d="M 399.158333 280.507692 
L 765.241667 280.507692 
" clip-path="url(#pe166bf8058)" style="fill: none; stroke: #ffc34a; stroke-opacity: 0.08; stroke-width: 0.5; stroke-linecap: square"/>
   </g>
   <g id="line2d_30">
    <path d="M 399.158333 247.379487 
L 765.241667 247.379487 
" clip-path="url(#pe166bf8058)" style="fill: none; stroke: #ffc34a; stroke-opacity: 0.08; stroke-width: 0.5; stroke-linecap: square"/>
   </g>
   <g id="line2d_31">
    <path d="M 399.158333 214.251282 
L 765.241667 214.251282 
" clip-path="url(#pe166bf8058)" style="fill: none; stroke: #ffc34a; stroke-opacity: 0.08; stroke-width: 0.5; stroke-linecap: square"/>
   </g>
   <g id="line2d_32">
    <path d="M 399.158333 181.123077 
L 765.241667 181.123077 
" clip-path="url(#pe166bf8058)" style="fill: none; stroke: #ffc34a; stroke-opacity: 0.08; stroke-width: 0.5; stroke-linecap: square"/>
   </g>
   <g id="line2d_33">
    <path d="M 399.158333 147.994872 
L 765.241667 147.994872 
" clip-path="url(#pe166bf8058)" style="fill: none; stroke: #ffc34a; stroke-opacity: 0.08; stroke-width: 0.5; stroke-linecap: square"/>
   </g>
   <g id="line2d_34">
    <path d="M 399.158333 114.866667 
L 765.241667 114.866667 
" clip-path="url(#pe166bf8058)" style="fill: none; stroke: #ffc34a; stroke-opacity: 0.08; stroke-width: 0.5; stroke-linecap: square"/>
   </g>
   <g id="line2d_35">
    <path d="M 426.470833 330.2 
L 430.413344 321.732764 
L 434.355854 311.713371 
L 438.298365 301.609771 
L 442.240876 293.119452 
L 446.183386 287.885165 
L 450.125897 287.201058 
L 454.068407 291.762228 
L 458.010918 301.504556 
L 461.953428 315.56686 
L 465.895939 332.386318 
L 469.838449 349.914661 
L 473.78096 365.921073 
L 477.72347 378.33188 
L 481.665981 385.550081 
L 485.608492 386.700748 
L 489.551002 381.760882 
L 493.493513 371.552238 
L 497.436023 357.599317 
L 501.378534 341.877905 
L 505.321044 326.49812 
L 509.263555 313.376516 
L 513.206065 303.952662 
L 517.148576 298.996593 
L 521.091086 298.536507 
L 525.033597 301.914136 
L 528.976108 307.952449 
L 532.918618 315.200959 
L 536.861129 322.211247 
L 540.803639 327.791745 
L 544.74615 331.196634 
L 548.68866 332.217729 
L 552.631171 331.167641 
L 556.573681 328.763498 
L 560.516192 325.939158 
L 564.458703 323.626582 
L 568.401213 322.551626 
L 572.343724 323.085134 
L 576.286234 325.177926 
L 580.228745 328.390593 
L 584.171255 332.009407 
L 588.113766 335.222074 
L 592.056276 337.314866 
L 595.998787 337.848374 
L 599.941297 336.773418 
L 603.883808 334.460842 
L 607.826319 331.636502 
L 611.768829 329.232359 
L 615.71134 328.182271 
L 619.65385 329.203366 
L 623.596361 332.608255 
L 627.538871 338.188753 
L 631.481382 345.199041 
L 635.423892 352.447551 
L 639.366403 358.485864 
L 643.308914 361.863493 
L 647.251424 361.403407 
L 651.193935 356.447338 
L 655.136445 347.023484 
L 659.078956 333.90188 
L 663.021466 318.522095 
L 666.963977 302.800683 
L 670.906487 288.847762 
L 674.848998 278.639118 
L 678.791508 273.699252 
L 682.734019 274.849919 
L 686.67653 282.06812 
L 690.61904 294.478927 
L 694.561551 310.485339 
L 698.504061 328.013682 
L 702.446572 344.83314 
L 706.389082 358.895444 
L 710.331593 368.637772 
L 714.274103 373.198942 
L 718.216614 372.514835 
L 722.159124 367.280548 
L 726.101635 358.790229 
L 730.044146 348.686629 
L 733.986656 338.667236 
L 737.929167 330.2 
" clip-path="url(#pe166bf8058)" style="fill: none; stroke: #ffc34a; stroke-opacity: 0.9; stroke-width: 2.4; stroke-linecap: square"/>
   </g>
   <g id="line2d_36">
    <path d="M 995.720833 330.2 
L 996.462383 328.977886 
L 997.023193 327.624913 
L 997.377521 326.159618 
L 997.502514 324.60355 
L 997.378697 322.980958 
L 996.990419 321.318444 
L 996.326238 319.644552 
L 995.379244 317.989336 
L 994.147315 316.383875 
L 992.633299 314.859774 
L 990.845119 313.448642 
L 988.795794 312.181557 
L 986.503386 311.088531 
L 983.990853 310.197976 
L 981.285831 309.536186 
L 978.420329 309.126842 
L 975.430352 308.990545 
L 972.355448 309.144386 
L 969.238192 309.601561 
L 966.123613 310.371042 
L 963.058559 311.457295 
L 960.09103 312.860076 
L 957.269468 314.574278 
L 954.642032 316.589861 
L 952.25585 318.891847 
L 950.156276 321.460395 
L 948.386149 324.27095 
L 946.985077 327.294461 
L 945.988745 330.497678 
L 945.428274 333.843516 
L 945.329621 337.291482 
L 945.713043 340.798168 
L 946.592638 344.31779 
L 947.975956 347.802788 
L 949.863698 351.20445 
L 952.249507 354.473582 
L 955.119858 357.561194 
L 958.454039 360.4192 
L 962.224248 363.001124 
L 966.395779 365.262795 
L 970.927319 367.163038 
L 975.77134 368.664321 
L 980.874593 369.733385 
L 986.178686 370.341812 
L 991.620755 370.466554 
L 997.134208 370.090386 
L 1002.649537 369.202298 
L 1008.095195 367.797807 
L 1013.398511 365.879188 
L 1018.486651 363.455611 
L 1023.287596 360.543197 
L 1027.731135 357.16497 
L 1031.749853 353.350726 
L 1035.2801 349.136792 
L 1038.26294 344.565704 
L 1040.645042 339.685793 
L 1042.379533 334.550672 
L 1043.426761 329.218661 
L 1043.755001 323.752116 
L 1043.341049 318.216706 
L 1042.170727 312.680623 
L 1040.239275 307.21374 
L 1037.551629 301.886739 
L 1034.122568 296.770198 
L 1029.976741 291.933673 
L 1025.148568 287.444763 
L 1019.681996 283.368192 
L 1013.630141 279.764908 
L 1007.054794 276.691205 
L 1000.025803 274.197906 
L 992.620343 272.329585 
L 984.92207 271.123862 
L 977.020182 270.610782 
L 969.008384 270.812265 
L 960.983775 271.741666 
L 953.045674 273.403433 
L 945.294394 275.792866 
L 937.829978 278.896003 
L 930.750919 282.689614 
L 924.152873 287.141318 
L 918.127391 292.209819 
L 912.760671 297.845259 
L 908.132371 303.989693 
L 904.314467 310.577667 
L 901.370208 317.536911 
L 899.353149 324.789125 
L 898.306298 332.250859 
L 898.261384 339.834474 
L 899.238253 347.449166 
L 901.244405 355.00206 
L 904.274682 362.399337 
L 908.311112 369.547398 
L 913.322908 376.354042 
L 919.266634 382.729648 
L 926.086534 388.58834 
L 933.715019 393.849131 
L 942.07331 398.43701 
L 951.072241 402.283988 
L 960.613193 405.33006 
L 970.589173 407.524083 
L 980.886009 408.824564 
L 991.383656 409.200331 
L 1001.957592 408.631085 
L 1012.480302 407.107833 
L 1022.822807 404.633173 
L 1032.85625 401.221448 
L 1042.453491 396.898751 
L 1051.490713 391.702786 
L 1059.849009 385.682578 
L 1067.415927 378.898039 
L 1074.086963 371.419395 
L 1079.76697 363.32647 
L 1084.371478 354.707847 
L 1087.827895 345.6599 
L 1090.076579 336.285724 
L 1091.071762 326.693959 
L 1090.782323 316.997533 
L 1089.192377 307.312329 
L 1086.301695 297.755805 
L 1082.125927 288.445569 
L 1076.696638 279.497932 
L 1070.061144 271.026461 
L 1062.282148 263.140546 
L 1053.437189 255.943995 
L 1043.617892 249.533686 
L 1032.929037 243.998279 
L 1021.487457 239.417018 
L 1009.420763 235.858634 
L 996.86593 233.380355 
L 983.967745 232.027056 
L 970.877135 231.830545 
L 957.749401 232.808998 
L 944.742381 234.966558 
L 932.014546 238.293104 
L 919.723076 242.764186 
L 908.02192 248.34114 
L 897.059875 254.97138 
L 886.978707 262.588859 
L 877.911326 271.114708 
L 869.980056 280.458034 
L 863.295014 290.51688 
L 857.952608 301.179327 
L 854.034199 312.324741 
L 851.604925 323.825129 
L 850.712704 335.546609 
L 851.387445 347.350972 
L 853.64047 359.097309 
L 857.464144 370.64369 
L 862.831751 381.848885 
L 869.697585 392.574081 
L 877.997286 402.684606 
L 887.6484 412.051606 
L 898.551173 420.553686 
L 910.589555 428.078462 
L 923.632428 434.524038 
L 937.535019 439.800356 
L 952.140505 443.830427 
L 967.281772 446.551416 
L 982.783333 447.915556 
L 982.783333 447.915556 
" clip-path="url(#pe166bf8058)" style="fill: none; stroke: #c58dff; stroke-opacity: 0.75; stroke-width: 2.15; stroke-linecap: square"/>
   </g>
   <g id="patch_45">
    <path d="M 1010.856444 252.509106 
C 1012.263973 252.509106 1013.614043 251.950646 1014.609316 250.956719 
C 1015.604589 249.962792 1016.163806 248.614549 1016.163806 247.208924 
C 1016.163806 245.803299 1015.604589 244.455055 1014.609316 243.461128 
C 1013.614043 242.467202 1012.263973 241.908741 1010.856444 241.908741 
C 1009.448915 241.908741 1008.098846 242.467202 1007.103573 243.461128 
C 1006.108299 244.455055 1005.549082 245.803299 1005.549082 247.208924 
C 1005.549082 248.614549 1006.108299 249.962792 1007.103573 250.956719 
C 1008.098846 251.950646 1009.448915 252.509106 1010.856444 252.509106 
z
" clip-path="url(#pe166bf8058)" style="fill: #c58dff; opacity: 0.254531"/>
   </g>
   <g id="patch_46">
    <path d="M 1068.104188 425.44969 
C 1068.8123 425.44969 1069.491505 425.168734 1069.992216 424.6687 
C 1070.492927 424.168667 1070.774263 423.49038 1070.774263 422.783226 
C 1070.774263 422.076072 1070.492927 421.397785 1069.992216 420.897751 
C 1069.491505 420.397718 1068.8123 420.116762 1068.104188 420.116762 
C 1067.396076 420.116762 1066.71687 420.397718 1066.21616 420.897751 
C 1065.715449 421.397785 1065.434113 422.076072 1065.434113 422.783226 
C 1065.434113 423.49038 1065.715449 424.168667 1066.21616 424.6687 
C 1066.71687 425.168734 1067.396076 425.44969 1068.104188 425.44969 
z
" clip-path="url(#pe166bf8058)" style="fill: #c58dff; opacity: 0.218146"/>
   </g>
   <g id="patch_47">
    <path d="M 1075.320854 328.358597 
C 1076.174449 328.358597 1076.993198 328.019919 1077.596781 327.417153 
C 1078.200364 326.814386 1078.539501 325.996745 1078.539501 325.144304 
C 1078.539501 324.291864 1078.200364 323.474223 1077.596781 322.871456 
C 1076.993198 322.26869 1076.174449 321.930012 1075.320854 321.930012 
C 1074.467259 321.930012 1073.64851 322.26869 1073.044928 322.871456 
C 1072.441345 323.474223 1072.102208 324.291864 1072.102208 325.144304 
C 1072.102208 325.996745 1072.441345 326.814386 1073.044928 327.417153 
C 1073.64851 328.019919 1074.467259 328.358597 1075.320854 328.358597 
z
" clip-path="url(#pe166bf8058)" style="fill: #c58dff; opacity: 0.27566"/>
   </g>
   <g id="patch_48">
    <path d="M 1129.140661 300.833283 
C 1130.321855 300.833283 1131.45483 300.364624 1132.290061 299.530523 
C 1133.125292 298.696422 1133.594585 297.56498 1133.594585 296.385383 
C 1133.594585 295.205786 1133.125292 294.074343 1132.290061 293.240243 
C 1131.45483 292.406142 1130.321855 291.937483 1129.140661 291.937483 
C 1127.959466 291.937483 1126.826491 292.406142 1125.99126 293.240243 
C 1125.15603 294.074343 1124.686736 295.205786 1124.686736 296.385383 
C 1124.686736 297.56498 1125.15603 298.696422 1125.99126 299.530523 
C 1126.826491 300.364624 1127.959466 300.833283 1129.140661 300.833283 
z
" clip-path="url(#pe166bf8058)" style="fill: #c58dff; opacity: 0.182507"/>
   </g>
   <g id="patch_49">
    <path d="M 1059.581976 225.299132 
C 1060.258856 225.299132 1060.908105 225.030569 1061.386731 224.552589 
C 1061.865358 224.07461 1062.134285 223.42624 1062.134285 222.750275 
C 1062.134285 222.07431 1061.865358 221.42594 1061.386731 220.947961 
C 1060.908105 220.469982 1060.258856 220.201418 1059.581976 220.201418 
C 1058.905095 220.201418 1058.255847 220.469982 1057.77722 220.947961 
C 1057.298594 221.42594 1057.029666 222.07431 1057.029666 222.750275 
C 1057.029666 223.42624 1057.298594 224.07461 1057.77722 224.552589 
C 1058.255847 225.030569 1058.905095 225.299132 1059.581976 225.299132 
z
" clip-path="url(#pe166bf8058)" style="fill: #c58dff; opacity: 0.357063"/>
   </g>
   <g id="patch_50">
    <path d="M 1094.87138 326.172269 
C 1096.076322 326.172269 1097.232076 325.694188 1098.084099 324.843317 
C 1098.936122 323.992447 1099.41485 322.838257 1099.41485 321.634944 
C 1099.41485 320.431631 1098.936122 319.277441 1098.084099 318.426571 
C 1097.232076 317.5757 1096.076322 317.097619 1094.87138 317.097619 
C 1093.666437 317.097619 1092.510684 317.5757 1091.658661 318.426571 
C 1090.806638 319.277441 1090.327909 320.431631 1090.327909 321.634944 
C 1090.327909 322.838257 1090.806638 323.992447 1091.658661 324.843317 
C 1092.510684 325.694188 1093.666437 326.172269 1094.87138 326.172269 
z
" clip-path="url(#pe166bf8058)" style="fill: #c58dff; opacity: 0.167044"/>
   </g>
   <g id="patch_51">
    <path d="M 933.189215 344.015136 
C 934.079506 344.015136 934.933452 343.661898 935.562983 343.033219 
C 936.192514 342.40454 936.54623 341.551749 936.54623 340.662663 
C 936.54623 339.773576 936.192514 338.920785 935.562983 338.292106 
C 934.933452 337.663427 934.079506 337.310189 933.189215 337.310189 
C 932.298925 337.310189 931.444978 337.663427 930.815448 338.292106 
C 930.185917 338.920785 929.832201 339.773576 929.832201 340.662663 
C 929.832201 341.551749 930.185917 342.40454 930.815448 343.033219 
C 931.444978 343.661898 932.298925 344.015136 933.189215 344.015136 
z
" clip-path="url(#pe166bf8058)" style="fill: #c58dff; opacity: 0.279462"/>
   </g>
   <g id="patch_52">
    <path d="M 985.510984 344.059459 
C 986.921321 344.059459 988.274084 343.499884 989.271343 342.503974 
C 990.268602 341.508065 990.828935 340.157131 990.828935 338.748702 
C 990.828935 337.340272 990.268602 335.989339 989.271343 334.993429 
C 988.274084 333.997519 986.921321 333.437944 985.510984 333.437944 
C 984.100647 333.437944 982.747883 333.997519 981.750624 334.993429 
C 980.753366 335.989339 980.193033 337.340272 980.193033 338.748702 
C 980.193033 340.157131 980.753366 341.508065 981.750624 342.503974 
C 982.747883 343.499884 984.100647 344.059459 985.510984 344.059459 
z
" clip-path="url(#pe166bf8058)" style="fill: #c58dff; opacity: 0.344108"/>
   </g>
   <g id="patch_53">
    <path d="M 1115.629971 301.790042 
C 1116.30533 301.790042 1116.953118 301.522082 1117.430668 301.045178 
C 1117.908218 300.568273 1118.176541 299.921361 1118.176541 299.246917 
C 1118.176541 298.572472 1117.908218 297.92556 1117.430668 297.448656 
C 1116.953118 296.971751 1116.30533 296.703792 1115.629971 296.703792 
C 1114.954613 296.703792 1114.306825 296.971751 1113.829275 297.448656 
C 1113.351724 297.92556 1113.083402 298.572472 1113.083402 299.246917 
C 1113.083402 299.921361 1113.351724 300.568273 1113.829275 301.045178 
C 1114.306825 301.522082 1114.954613 301.790042 1115.629971 301.790042 
z
" clip-path="url(#pe166bf8058)" style="fill: #c58dff; opacity: 0.279793"/>
   </g>
   <g id="patch_54">
    <path d="M 1006.083315 238.754083 
C 1007.537831 238.754083 1008.932969 238.17698 1009.961467 237.149873 
C 1010.989964 236.122767 1011.567849 234.729516 1011.567849 233.276968 
C 1011.567849 231.82442 1010.989964 230.431169 1009.961467 229.404063 
C 1008.932969 228.376956 1007.537831 227.799853 1006.083315 227.799853 
C 1004.6288 227.799853 1003.233662 228.376956 1002.205164 229.404063 
C 1001.176666 230.431169 1000.598781 231.82442 1000.598781 233.276968 
C 1000.598781 234.729516 1001.176666 236.122767 1002.205164 237.149873 
C 1003.233662 238.17698 1004.6288 238.754083 1006.083315 238.754083 
z
" clip-path="url(#pe166bf8058)" style="fill: #c58dff; opacity: 0.344756"/>
   </g>
   <g id="patch_55">
    <path d="M 834.674472 347.251698 
C 836.194268 347.251698 837.652021 346.648694 838.726679 345.575489 
C 839.801337 344.502285 840.405159 343.046503 840.405159 341.528763 
C 840.405159 340.011022 839.801337 338.555241 838.726679 337.482036 
C 837.652021 336.408832 836.194268 335.805827 834.674472 335.805827 
C 833.154676 335.805827 831.696922 336.408832 830.622264 337.482036 
C 829.547606 338.555241 828.943784 340.011022 828.943784 341.528763 
C 828.943784 343.046503 829.547606 344.502285 830.622264 345.575489 
C 831.696922 346.648694 833.154676 347.251698 834.674472 347.251698 
z
" clip-path="url(#pe166bf8058)" style="fill: #c58dff; opacity: 0.255253"/>
   </g>
   <g id="patch_56">
    <path d="M 1122.528267 388.654 
C 1124.134666 388.654 1125.675488 388.016634 1126.811384 386.882275 
C 1127.94728 385.747915 1128.585509 384.209177 1128.585509 382.604951 
C 1128.585509 381.000724 1127.94728 379.461986 1126.811384 378.327627 
C 1125.675488 377.193267 1124.134666 376.555901 1122.528267 376.555901 
C 1120.921867 376.555901 1119.381045 377.193267 1118.245149 378.327627 
C 1117.109253 379.461986 1116.471024 381.000724 1116.471024 382.604951 
C 1116.471024 384.209177 1117.109253 385.747915 1118.245149 386.882275 
C 1119.381045 388.016634 1120.921867 388.654 1122.528267 388.654 
z
" clip-path="url(#pe166bf8058)" style="fill: #c58dff; opacity: 0.189609"/>
   </g>
   <g id="patch_57">
    <path d="M 890.025318 330.996782 
C 891.474174 330.996782 892.863884 330.421924 893.88838 329.398814 
C 894.912876 328.375704 895.488513 326.987874 895.488513 325.540977 
C 895.488513 324.094081 894.912876 322.706251 893.88838 321.683141 
C 892.863884 320.66003 891.474174 320.085172 890.025318 320.085172 
C 888.576462 320.085172 887.186752 320.66003 886.162256 321.683141 
C 885.13776 322.706251 884.562123 324.094081 884.562123 325.540977 
C 884.562123 326.987874 885.13776 328.375704 886.162256 329.398814 
C 887.186752 330.421924 888.576462 330.996782 890.025318 330.996782 
z
" clip-path="url(#pe166bf8058)" style="fill: #c58dff; opacity: 0.208348"/>
   </g>
   <g id="patch_58">
    <path d="M 1059.118648 240.710208 
C 1060.601816 240.710208 1062.024436 240.121737 1063.073194 239.074398 
C 1064.121952 238.027059 1064.71122 236.606363 1064.71122 235.125201 
C 1064.71122 233.64404 1064.121952 232.223344 1063.073194 231.176005 
C 1062.024436 230.128666 1060.601816 229.540194 1059.118648 229.540194 
C 1057.635481 229.540194 1056.212861 230.128666 1055.164103 231.176005 
C 1054.115345 232.223344 1053.526076 233.64404 1053.526076 235.125201 
C 1053.526076 236.606363 1054.115345 238.027059 1055.164103 239.074398 
C 1056.212861 240.121737 1057.635481 240.710208 1059.118648 240.710208 
z
" clip-path="url(#pe166bf8058)" style="fill: #c58dff; opacity: 0.28555"/>
   </g>
   <g id="patch_59">
    <path d="M 1047.852318 296.354741 
C 1049.461258 296.354741 1051.004516 295.716367 1052.142208 294.580213 
C 1053.279901 293.44406 1053.919139 291.902889 1053.919139 290.296125 
C 1053.919139 288.689362 1053.279901 287.148191 1052.142208 286.012038 
C 1051.004516 284.875884 1049.461258 284.23751 1047.852318 284.23751 
C 1046.243378 284.23751 1044.700119 284.875884 1043.562427 286.012038 
C 1042.424735 287.148191 1041.785496 288.689362 1041.785496 290.296125 
C 1041.785496 291.902889 1042.424735 293.44406 1043.562427 294.580213 
C 1044.700119 295.716367 1046.243378 296.354741 1047.852318 296.354741 
z
" clip-path="url(#pe166bf8058)" style="fill: #c58dff; opacity: 0.240471"/>
   </g>
   <g id="patch_60">
    <path d="M 980.776325 352.886639 
C 982.005359 352.886639 983.18422 352.398999 984.053278 351.531117 
C 984.922337 350.663234 985.410637 349.485967 985.410637 348.258595 
C 985.410637 347.031224 984.922337 345.853957 984.053278 344.986074 
C 983.18422 344.118191 982.005359 343.630551 980.776325 343.630551 
C 979.547291 343.630551 978.368429 344.118191 977.499371 344.986074 
C 976.630313 345.853957 976.142012 347.031224 976.142012 348.258595 
C 976.142012 349.485967 976.630313 350.663234 977.499371 351.531117 
C 978.368429 352.398999 979.547291 352.886639 980.776325 352.886639 
z
" clip-path="url(#pe166bf8058)" style="fill: #c58dff; opacity: 0.230499"/>
   </g>
   <g id="patch_61">
    <path d="M 874.283693 307.805652 
C 875.279518 307.805652 876.23469 307.410542 876.938844 306.70734 
C 877.642998 306.004138 878.038644 305.050258 878.038644 304.05578 
C 878.038644 303.061303 877.642998 302.107422 876.938844 301.40422 
C 876.23469 300.701019 875.279518 300.305908 874.283693 300.305908 
C 873.287868 300.305908 872.332696 300.701019 871.628542 301.40422 
C 870.924388 302.107422 870.528742 303.061303 870.528742 304.05578 
C 870.528742 305.050258 870.924388 306.004138 871.628542 306.70734 
C 872.332696 307.410542 873.287868 307.805652 874.283693 307.805652 
z
" clip-path="url(#pe166bf8058)" style="fill: #c58dff; opacity: 0.261196"/>
   </g>
   <g id="patch_62">
    <path d="M 1027.75916 335.673997 
C 1028.776421 335.673997 1029.752154 335.270382 1030.471466 334.552043 
C 1031.190778 333.833704 1031.59494 332.859291 1031.59494 331.843406 
C 1031.59494 330.827521 1031.190778 329.853108 1030.471466 329.134769 
C 1029.752154 328.41643 1028.776421 328.012815 1027.75916 328.012815 
C 1026.741899 328.012815 1025.766166 328.41643 1025.046854 329.134769 
C 1024.327542 329.853108 1023.92338 330.827521 1023.92338 331.843406 
C 1023.92338 332.859291 1024.327542 333.833704 1025.046854 334.552043 
C 1025.766166 335.270382 1026.741899 335.673997 1027.75916 335.673997 
z
" clip-path="url(#pe166bf8058)" style="fill: #c58dff; opacity: 0.240142"/>
   </g>
   <g id="patch_63">
    <path d="M 1047.155188 317.264375 
C 1048.098178 317.264375 1049.002673 316.890228 1049.669468 316.224335 
C 1050.336263 315.558442 1050.710917 314.65517 1050.710917 313.713456 
C 1050.710917 312.771741 1050.336263 311.868469 1049.669468 311.202577 
C 1049.002673 310.536684 1048.098178 310.162536 1047.155188 310.162536 
C 1046.212197 310.162536 1045.307702 310.536684 1044.640908 311.202577 
C 1043.974113 311.868469 1043.599459 312.771741 1043.599459 313.713456 
C 1043.599459 314.65517 1043.974113 315.558442 1044.640908 316.224335 
C 1045.307702 316.890228 1046.212197 317.264375 1047.155188 317.264375 
z
" clip-path="url(#pe166bf8058)" style="fill: #c58dff; opacity: 0.169019"/>
   </g>
   <g id="patch_64">
    <path d="M 832.234581 277.593631 
C 833.880084 277.593631 835.458413 276.94075 836.621959 275.778778 
C 837.785505 274.616805 838.439271 273.040611 838.439271 271.397334 
C 838.439271 269.754057 837.785505 268.177862 836.621959 267.01589 
C 835.458413 265.853918 833.880084 265.201037 832.234581 265.201037 
C 830.589077 265.201037 829.010748 265.853918 827.847202 267.01589 
C 826.683656 268.177862 826.029891 269.754057 826.029891 271.397334 
C 826.029891 273.040611 826.683656 274.616805 827.847202 275.778778 
C 829.010748 276.94075 830.589077 277.593631 832.234581 277.593631 
z
" clip-path="url(#pe166bf8058)" style="fill: #c58dff; opacity: 0.282995"/>
   </g>
   <g id="patch_65">
    <path d="M 1116.868473 417.843036 
C 1118.409609 417.843036 1119.887831 417.231564 1120.977579 416.14329 
C 1122.067327 415.055017 1122.679627 413.578794 1122.679627 412.039742 
C 1122.679627 410.500691 1122.067327 409.024468 1120.977579 407.936194 
C 1119.887831 406.847921 1118.409609 406.236449 1116.868473 406.236449 
C 1115.327337 406.236449 1113.849114 406.847921 1112.759367 407.936194 
C 1111.669619 409.024468 1111.057319 410.500691 1111.057319 412.039742 
C 1111.057319 413.578794 1111.669619 415.055017 1112.759367 416.14329 
C 1113.849114 417.231564 1115.327337 417.843036 1116.868473 417.843036 
z
" clip-path="url(#pe166bf8058)" style="fill: #c58dff; opacity: 0.327384"/>
   </g>
   <g id="patch_66">
    <path d="M 1002.238264 339.344396 
C 1003.874772 339.344396 1005.444473 338.695084 1006.601658 337.539464 
C 1007.758844 336.383844 1008.409035 334.816266 1008.409035 333.181972 
C 1008.409035 331.547678 1007.758844 329.980101 1006.601658 328.824481 
C 1005.444473 327.66886 1003.874772 327.019548 1002.238264 327.019548 
C 1000.601757 327.019548 999.032056 327.66886 997.87487 328.824481 
C 996.717685 329.980101 996.067494 331.547678 996.067494 333.181972 
C 996.067494 334.816266 996.717685 336.383844 997.87487 337.539464 
C 999.032056 338.695084 1000.601757 339.344396 1002.238264 339.344396 
z
" clip-path="url(#pe166bf8058)" style="fill: #c58dff; opacity: 0.202922"/>
   </g>
   <g id="patch_67">
    <path d="M 1043.167304 415.940967 
C 1044.037145 415.940967 1044.871477 415.595843 1045.486548 414.981604 
C 1046.101618 414.367366 1046.44721 413.534162 1046.44721 412.665498 
C 1046.44721 411.796833 1046.101618 410.96363 1045.486548 410.349391 
C 1044.871477 409.735152 1044.037145 409.390028 1043.167304 409.390028 
C 1042.297462 409.390028 1041.46313 409.735152 1040.84806 410.349391 
C 1040.232989 410.96363 1039.887398 411.796833 1039.887398 412.665498 
C 1039.887398 413.534162 1040.232989 414.367366 1040.84806 414.981604 
C 1041.46313 415.595843 1042.297462 415.940967 1043.167304 415.940967 
z
" clip-path="url(#pe166bf8058)" style="fill: #c58dff; opacity: 0.245746"/>
   </g>
   <g id="patch_68">
    <path d="M 1010.105141 276.664597 
C 1010.770408 276.664597 1011.408517 276.400642 1011.878931 275.930863 
C 1012.349346 275.461085 1012.613659 274.823839 1012.613659 274.159473 
C 1012.613659 273.495106 1012.349346 272.85786 1011.878931 272.388082 
C 1011.408517 271.918304 1010.770408 271.654348 1010.105141 271.654348 
C 1009.439875 271.654348 1008.801766 271.918304 1008.331351 272.388082 
C 1007.860937 272.85786 1007.596624 273.495106 1007.596624 274.159473 
C 1007.596624 274.823839 1007.860937 275.461085 1008.331351 275.930863 
C 1008.801766 276.400642 1009.439875 276.664597 1010.105141 276.664597 
z
" clip-path="url(#pe166bf8058)" style="fill: #c58dff; opacity: 0.311293"/>
   </g>
   <g id="patch_69">
    <path d="M 908.497184 431.461979 
C 909.68111 431.461979 910.816704 430.992237 911.653866 430.156207 
C 912.491028 429.320178 912.961407 428.186119 912.961407 427.003795 
C 912.961407 425.82147 912.491028 424.687412 911.653866 423.851382 
C 910.816704 423.015352 909.68111 422.54561 908.497184 422.54561 
C 907.313258 422.54561 906.177663 423.015352 905.340501 423.851382 
C 904.503339 424.687412 904.032961 425.82147 904.032961 427.003795 
C 904.032961 428.186119 904.503339 429.320178 905.340501 430.156207 
C 906.177663 430.992237 907.313258 431.461979 908.497184 431.461979 
z
" clip-path="url(#pe166bf8058)" style="fill: #c58dff; opacity: 0.172838"/>
   </g>
   <g id="text_1">
    <!-- AI CORE TEMP 27°C -->
    <g style="fill: #53d7f7; opacity: 0.75" transform="translate(152.811276 449.705122) scale(0.09 -0.09)">
     <defs>
      <path id="DejaVuSansMono-41" d="M 1925 4109 
L 1259 1722 
L 2591 1722 
L 1925 4109 
z
M 1544 4666 
L 2309 4666 
L 3738 0 
L 3084 0 
L 2741 1216 
L 1106 1216 
L 769 0 
L 116 0 
L 1544 4666 
z
" transform="scale(0.015625)"/>
      <path id="DejaVuSansMono-49" d="M 628 4666 
L 3219 4666 
L 3219 4134 
L 2241 4134 
L 2241 531 
L 3219 531 
L 3219 0 
L 628 0 
L 628 531 
L 1606 531 
L 1606 4134 
L 628 4134 
L 628 4666 
z
" transform="scale(0.015625)"/>
      <path id="DejaVuSansMono-20" transform="scale(0.015625)"/>
      <path id="DejaVuSansMono-43" d="M 3353 166 
Q 3113 38 2859 -26 
Q 2606 -91 2322 -91 
Q 1425 -91 929 543 
Q 434 1178 434 2328 
Q 434 3472 932 4111 
Q 1431 4750 2322 4750 
Q 2606 4750 2859 4686 
Q 3113 4622 3353 4494 
L 3353 3847 
Q 3122 4038 2856 4138 
Q 2591 4238 2322 4238 
Q 1706 4238 1400 3763 
Q 1094 3288 1094 2328 
Q 1094 1372 1400 897 
Q 1706 422 2322 422 
Q 2597 422 2861 522 
Q 3125 622 3353 813 
L 3353 166 
z
" transform="scale(0.015625)"/>
      <path id="DejaVuSansMono-4f" d="M 2828 2328 
Q 2828 3356 2617 3797 
Q 2406 4238 1925 4238 
Q 1447 4238 1236 3797 
Q 1025 3356 1025 2328 
Q 1025 1303 1236 862 
Q 1447 422 1925 422 
Q 2406 422 2617 861 
Q 2828 1300 2828 2328 
z
M 3488 2328 
Q 3488 1109 3102 509 
Q 2716 -91 1925 -91 
Q 1134 -91 750 506 
Q 366 1103 366 2328 
Q 366 3550 752 4150 
Q 1138 4750 1925 4750 
Q 2716 4750 3102 4150 
Q 3488 3550 3488 2328 
z
" transform="scale(0.015625)"/>
      <path id="DejaVuSansMono-52" d="M 2375 2203 
Q 2619 2141 2791 1967 
Q 2963 1794 3219 1275 
L 3853 0 
L 3175 0 
L 2619 1178 
Q 2378 1681 2186 1826 
Q 1994 1972 1684 1972 
L 1081 1972 
L 1081 0 
L 447 0 
L 447 4666 
L 1747 4666 
Q 2516 4666 2925 4319 
Q 3334 3972 3334 3316 
Q 3334 2853 3082 2561 
Q 2831 2269 2375 2203 
z
M 1081 4147 
L 1081 2491 
L 1772 2491 
Q 2225 2491 2447 2694 
Q 2669 2897 2669 3316 
Q 2669 3719 2433 3933 
Q 2197 4147 1747 4147 
L 1081 4147 
z
" transform="scale(0.015625)"/>
      <path id="DejaVuSansMono-45" d="M 616 4666 
L 3384 4666 
L 3384 4134 
L 1247 4134 
L 1247 2753 
L 3291 2753 
L 3291 2222 
L 1247 2222 
L 1247 531 
L 3444 531 
L 3444 0 
L 616 0 
L 616 4666 
z
" transform="scale(0.015625)"/>
      <path id="DejaVuSansMono-54" d="M 147 4666 
L 3706 4666 
L 3706 4134 
L 2247 4134 
L 2247 0 
L 1613 0 
L 1613 4134 
L 147 4134 
L 147 4666 
z
" transform="scale(0.015625)"/>
      <path id="DejaVuSansMono-4d" d="M 269 4666 
L 1113 4666 
L 1919 2291 
L 2731 4666 
L 3578 4666 
L 3578 0 
L 2994 0 
L 2994 4122 
L 2163 1663 
L 1684 1663 
L 850 4122 
L 850 0 
L 269 0 
L 269 4666 
z
" transform="scale(0.015625)"/>
      <path id="DejaVuSansMono-50" d="M 1247 4147 
L 1247 2394 
L 1978 2394 
Q 2416 2394 2661 2625 
Q 2906 2856 2906 3272 
Q 2906 3688 2662 3917 
Q 2419 4147 1978 4147 
L 1247 4147 
z
M 616 4666 
L 1978 4666 
Q 2759 4666 3162 4311 
Q 3566 3956 3566 3272 
Q 3566 2581 3164 2228 
Q 2763 1875 1978 1875 
L 1247 1875 
L 1247 0 
L 616 0 
L 616 4666 
z
" transform="scale(0.015625)"/>
      <path id="DejaVuSansMono-32" d="M 1166 531 
L 3309 531 
L 3309 0 
L 475 0 
L 475 531 
Q 1059 1147 1496 1619 
Q 1934 2091 2100 2284 
Q 2413 2666 2522 2902 
Q 2631 3138 2631 3384 
Q 2631 3775 2401 3997 
Q 2172 4219 1772 4219 
Q 1488 4219 1175 4116 
Q 863 4013 513 3803 
L 513 4441 
Q 834 4594 1145 4672 
Q 1456 4750 1759 4750 
Q 2444 4750 2861 4386 
Q 3278 4022 3278 3431 
Q 3278 3131 3139 2831 
Q 3000 2531 2688 2169 
Q 2513 1966 2180 1606 
Q 1847 1247 1166 531 
z
" transform="scale(0.015625)"/>
      <path id="DejaVuSansMono-37" d="M 434 4666 
L 3372 4666 
L 3372 4397 
L 1703 0 
L 1044 0 
L 2669 4134 
L 434 4134 
L 434 4666 
z
" transform="scale(0.015625)"/>
      <path id="DejaVuSansMono-b0" d="M 1925 4750 
Q 2128 4750 2311 4673 
Q 2494 4597 2631 4453 
Q 2772 4313 2845 4134 
Q 2919 3956 2919 3750 
Q 2919 3338 2628 3052 
Q 2338 2766 1919 2766 
Q 1497 2766 1215 3047 
Q 934 3328 934 3750 
Q 934 4169 1221 4459 
Q 1509 4750 1925 4750 
z
M 1925 4347 
Q 1678 4347 1504 4173 
Q 1331 4000 1331 3750 
Q 1331 3500 1501 3331 
Q 1672 3163 1919 3163 
Q 2169 3163 2345 3334 
Q 2522 3506 2522 3750 
Q 2522 3997 2347 4172 
Q 2172 4347 1925 4347 
z
" transform="scale(0.015625)"/>
     </defs>
     <use xlink:href="#DejaVuSansMono-41"/>
     <use xlink:href="#DejaVuSansMono-49" transform="translate(60.205078 0)"/>
     <use xlink:href="#DejaVuSansMono-20" transform="translate(120.410156 0)"/>
     <use xlink:href="#DejaVuSansMono-43" transform="translate(180.615234 0)"/>
     <use xlink:href="#DejaVuSansMono-4f" transform="translate(240.820312 0)"/>
     <use xlink:href="#DejaVuSansMono-52" transform="translate(301.025391 0)"/>
     <use xlink:href="#DejaVuSansMono-45" transform="translate(361.230469 0)"/>
     <use xlink:href="#DejaVuSansMono-20" transform="translate(421.435547 0)"/>
     <use xlink:href="#DejaVuSansMono-54" transform="translate(481.640625 0)"/>
     <use xlink:href="#DejaVuSansMono-45" transform="translate(541.845703 0)"/>
     <use xlink:href="#DejaVuSansMono-4d" transform="translate(602.050781 0)"/>
     <use xlink:href="#DejaVuSansMono-50" transform="translate(662.255859 0)"/>
     <use xlink:href="#DejaVuSansMono-20" transform="translate(722.460938 0)"/>
     <use xlink:href="#DejaVuSansMono-32" transform="translate(782.666016 0)"/>
     <use xlink:href="#DejaVuSansMono-37" transform="translate(842.871094 0)"/>
     <use xlink:href="#DejaVuSansMono-b0" transform="translate(903.076172 0)"/>
     <use xlink:href="#DejaVuSansMono-43" transform="translate(963.28125 0)"/>
    </g>
   </g>
   <g id="text_2">
    <!-- IDLE -->
    <g style="fill: #53d7f7; opacity: 0.85" transform="translate(183.731667 477.066806) scale(0.12 -0.12)">
     <defs>
      <path id="DejaVuSans-Bold-49" d="M 588 4666 
L 1791 4666 
L 1791 0 
L 588 0 
L 588 4666 
z
" transform="scale(0.015625)"/>
      <path id="DejaVuSans-Bold-44" d="M 1791 3756 
L 1791 909 
L 2222 909 
Q 2959 909 3348 1275 
Q 3738 1641 3738 2338 
Q 3738 3031 3350 3393 
Q 2963 3756 2222 3756 
L 1791 3756 
z
M 588 4666 
L 1856 4666 
Q 2919 4666 3439 4514 
Q 3959 4363 4331 4000 
Q 4659 3684 4818 3271 
Q 4978 2859 4978 2338 
Q 4978 1809 4818 1395 
Q 4659 981 4331 666 
Q 3956 303 3431 151 
Q 2906 0 1856 0 
L 588 0 
L 588 4666 
z
" transform="scale(0.015625)"/>
      <path id="DejaVuSans-Bold-4c" d="M 588 4666 
L 1791 4666 
L 1791 909 
L 3903 909 
L 3903 0 
L 588 0 
L 588 4666 
z
" transform="scale(0.015625)"/>
      <path id="DejaVuSans-Bold-45" d="M 588 4666 
L 3834 4666 
L 3834 3756 
L 1791 3756 
L 1791 2888 
L 3713 2888 
L 3713 1978 
L 1791 1978 
L 1791 909 
L 3903 909 
L 3903 0 
L 588 0 
L 588 4666 
z
" transform="scale(0.015625)"/>
     </defs>
     <use xlink:href="#DejaVuSans-Bold-49"/>
     <use xlink:href="#DejaVuSans-Bold-44" transform="translate(37.207031 0)"/>
     <use xlink:href="#DejaVuSans-Bold-4c" transform="translate(120.214844 0)"/>
     <use xlink:href="#DejaVuSans-Bold-45" transform="translate(183.935547 0)"/>
    </g>
   </g>
   <g id="patch_70">
    <path d="M 477.502083 387.622222 
L 490.439583 387.622222 
L 490.439583 260.036442 
L 477.502083 260.036442 
z
" clip-path="url(#pe166bf8058)" style="fill: #ffc34a; opacity: 0.76"/>
   </g>
   <g id="patch_71">
    <path d="M 490.599306 387.622222 
L 503.536806 387.622222 
L 503.536806 237.587497 
L 490.599306 237.587497 
z
" clip-path="url(#pe166bf8058)" style="fill: #ffc34a; opacity: 0.76"/>
   </g>
   <g id="patch_72">
    <path d="M 503.696528 387.622222 
L 516.634028 387.622222 
L 516.634028 232.03205 
L 503.696528 232.03205 
z
" clip-path="url(#pe166bf8058)" style="fill: #ffc34a; opacity: 0.76"/>
   </g>
   <g id="patch_73">
    <path d="M 516.79375 387.622222 
L 529.73125 387.622222 
L 529.73125 282.122317 
L 516.79375 282.122317 
z
" clip-path="url(#pe166bf8058)" style="fill: #ffc34a; opacity: 0.76"/>
   </g>
   <g id="patch_74">
    <path d="M 529.890972 387.622222 
L 542.828472 387.622222 
L 542.828472 306.63249 
L 529.890972 306.63249 
z
" clip-path="url(#pe166bf8058)" style="fill: #ffc34a; opacity: 0.76"/>
   </g>
   <g id="patch_75">
    <path d="M 542.988194 387.622222 
L 555.925694 387.622222 
L 555.925694 261.31602 
L 542.988194 261.31602 
z
" clip-path="url(#pe166bf8058)" style="fill: #ffc34a; opacity: 0.76"/>
   </g>
   <g id="patch_76">
    <path d="M 556.085417 387.622222 
L 569.022917 387.622222 
L 569.022917 270.605671 
L 556.085417 270.605671 
z
" clip-path="url(#pe166bf8058)" style="fill: #ffc34a; opacity: 0.76"/>
   </g>
   <g id="patch_77">
    <path d="M 569.182639 387.622222 
L 582.120139 387.622222 
L 582.120139 277.723161 
L 569.182639 277.723161 
z
" clip-path="url(#pe166bf8058)" style="fill: #ffc34a; opacity: 0.76"/>
   </g>
   <g id="patch_78">
    <path d="M 582.279861 387.622222 
L 595.217361 387.622222 
L 595.217361 278.176321 
L 582.279861 278.176321 
z
" clip-path="url(#pe166bf8058)" style="fill: #ffc34a; opacity: 0.76"/>
   </g>
   <g id="patch_79">
    <path d="M 595.377083 387.622222 
L 608.314583 387.622222 
L 608.314583 274.155142 
L 595.377083 274.155142 
z
" clip-path="url(#pe166bf8058)" style="fill: #ffc34a; opacity: 0.76"/>
   </g>
   <g id="patch_80">
    <path d="M 608.474306 387.622222 
L 621.411806 387.622222 
L 621.411806 206.873467 
L 608.474306 206.873467 
z
" clip-path="url(#pe166bf8058)" style="fill: #ffc34a; opacity: 0.76"/>
   </g>
   <g id="patch_81">
    <path d="M 621.571528 387.622222 
L 634.509028 387.622222 
L 634.509028 279.03156 
L 621.571528 279.03156 
z
" clip-path="url(#pe166bf8058)" style="fill: #ffc34a; opacity: 0.76"/>
   </g>
   <g id="patch_82">
    <path d="M 634.66875 387.622222 
L 647.60625 387.622222 
L 647.60625 239.459426 
L 634.66875 239.459426 
z
" clip-path="url(#pe166bf8058)" style="fill: #ffc34a; opacity: 0.76"/>
   </g>
   <g id="patch_83">
    <path d="M 647.765972 387.622222 
L 660.703472 387.622222 
L 660.703472 253.206949 
L 647.765972 253.206949 
z
" clip-path="url(#pe166bf8058)" style="fill: #ffc34a; opacity: 0.76"/>
   </g>
   <g id="patch_84">
    <path d="M 660.863194 387.622222 
L 673.800694 387.622222 
L 673.800694 288.589774 
L 660.863194 288.589774 
z
" clip-path="url(#pe166bf8058)" style="fill: #ffc34a; opacity: 0.76"/>
   </g>
   <g id="patch_85">
    <path d="M 673.960417 387.622222 
L 686.897917 387.622222 
L 686.897917 275.353468 
L 673.960417 275.353468 
z
" clip-path="url(#pe166bf8058)" style="fill: #ffc34a; opacity: 0.76"/>
   </g>
   <g id="text_3">
    <!-- LISTENING -->
    <g style="fill: #ffc34a; opacity: 0.96" transform="translate(555.0575 482.809028) scale(0.12 -0.12)">
     <defs>
      <path id="DejaVuSans-Bold-53" d="M 3834 4519 
L 3834 3531 
Q 3450 3703 3084 3790 
Q 2719 3878 2394 3878 
Q 1963 3878 1756 3759 
Q 1550 3641 1550 3391 
Q 1550 3203 1689 3098 
Q 1828 2994 2194 2919 
L 2706 2816 
Q 3484 2659 3812 2340 
Q 4141 2022 4141 1434 
Q 4141 663 3683 286 
Q 3225 -91 2284 -91 
Q 1841 -91 1394 -6 
Q 947 78 500 244 
L 500 1259 
Q 947 1022 1364 901 
Q 1781 781 2169 781 
Q 2563 781 2772 912 
Q 2981 1044 2981 1288 
Q 2981 1506 2839 1625 
Q 2697 1744 2272 1838 
L 1806 1941 
Q 1106 2091 782 2419 
Q 459 2747 459 3303 
Q 459 4000 909 4375 
Q 1359 4750 2203 4750 
Q 2588 4750 2994 4692 
Q 3400 4634 3834 4519 
z
" transform="scale(0.015625)"/>
      <path id="DejaVuSans-Bold-54" d="M 31 4666 
L 4331 4666 
L 4331 3756 
L 2784 3756 
L 2784 0 
L 1581 0 
L 1581 3756 
L 31 3756 
L 31 4666 
z
" transform="scale(0.015625)"/>
      <path id="DejaVuSans-Bold-4e" d="M 588 4666 
L 1931 4666 
L 3628 1466 
L 3628 4666 
L 4769 4666 
L 4769 0 
L 3425 0 
L 1728 3200 
L 1728 0 
L 588 0 
L 588 4666 
z
" transform="scale(0.015625)"/>
      <path id="DejaVuSans-Bold-47" d="M 4781 347 
Q 4331 128 3847 18 
Q 3363 -91 2847 -91 
Q 1681 -91 1000 561 
Q 319 1213 319 2328 
Q 319 3456 1012 4103 
Q 1706 4750 2913 4750 
Q 3378 4750 3804 4662 
Q 4231 4575 4609 4403 
L 4609 3438 
Q 4219 3659 3833 3768 
Q 3447 3878 3059 3878 
Q 2341 3878 1952 3476 
Q 1563 3075 1563 2328 
Q 1563 1588 1938 1184 
Q 2313 781 3003 781 
Q 3191 781 3352 804 
Q 3513 828 3641 878 
L 3641 1784 
L 2906 1784 
L 2906 2591 
L 4781 2591 
L 4781 347 
z
" transform="scale(0.015625)"/>
     </defs>
     <use xlink:href="#DejaVuSans-Bold-4c"/>
     <use xlink:href="#DejaVuSans-Bold-49" transform="translate(63.720703 0)"/>
     <use xlink:href="#DejaVuSans-Bold-53" transform="translate(100.927734 0)"/>
     <use xlink:href="#DejaVuSans-Bold-54" transform="translate(172.949219 0)"/>
     <use xlink:href="#DejaVuSans-Bold-45" transform="translate(241.162109 0)"/>
     <use xlink:href="#DejaVuSans-Bold-4e" transform="translate(309.472656 0)"/>
     <use xlink:href="#DejaVuSans-Bold-49" transform="translate(393.164062 0)"/>
     <use xlink:href="#DejaVuSans-Bold-4e" transform="translate(430.371094 0)"/>
     <use xlink:href="#DejaVuSans-Bold-47" transform="translate(514.0625 0)"/>
    </g>
   </g>
   <g id="text_4">
    <!-- AUDIO IN -->
    <g style="fill: #ffc34a; opacity: 0.67" transform="translate(566.442734 449.661863) scale(0.09 -0.09)">
     <defs>
      <path id="DejaVuSansMono-55" d="M 459 1791 
L 459 4666 
L 1094 4666 
L 1094 1503 
Q 1094 1163 1112 1017 
Q 1131 872 1178 794 
Q 1278 609 1467 515 
Q 1656 422 1925 422 
Q 2197 422 2384 515 
Q 2572 609 2675 794 
Q 2722 872 2740 1015 
Q 2759 1159 2759 1497 
L 2759 4666 
L 3391 4666 
L 3391 1791 
Q 3391 1075 3302 773 
Q 3213 472 2994 275 
Q 2788 91 2522 0 
Q 2256 -91 1925 -91 
Q 1597 -91 1331 0 
Q 1066 91 856 275 
Q 641 469 550 776 
Q 459 1084 459 1791 
z
" transform="scale(0.015625)"/>
      <path id="DejaVuSansMono-44" d="M 1363 519 
Q 2159 519 2475 911 
Q 2791 1303 2791 2328 
Q 2791 3363 2477 3755 
Q 2163 4147 1363 4147 
L 1063 4147 
L 1063 519 
L 1363 519 
z
M 1375 4666 
Q 2444 4666 2950 4097 
Q 3456 3528 3456 2328 
Q 3456 1134 2950 567 
Q 2444 0 1375 0 
L 428 0 
L 428 4666 
L 1375 4666 
z
" transform="scale(0.015625)"/>
      <path id="DejaVuSansMono-4e" d="M 434 4666 
L 1234 4666 
L 2809 825 
L 2809 4666 
L 3419 4666 
L 3419 0 
L 2619 0 
L 1044 3841 
L 1044 0 
L 434 0 
L 434 4666 
z
" transform="scale(0.015625)"/>
      <path id="DejaVuSansMono-d" d="M 325 -1131 
L 325 4513 
L 3525 4513 
L 3525 -1131 
L 325 -1131 
z
M 684 -775 
L 3169 -775 
L 3169 4153 
L 684 4153 
L 684 -775 
z
" transform="scale(0.015625)"/>
     </defs>
     <use xlink:href="#DejaVuSansMono-41"/>
     <use xlink:href="#DejaVuSansMono-55" transform="translate(60.205078 0)"/>
     <use xlink:href="#DejaVuSansMono-44" transform="translate(120.410156 0)"/>
     <use xlink:href="#DejaVuSansMono-49" transform="translate(180.615234 0)"/>
     <use xlink:href="#DejaVuSansMono-4f" transform="translate(240.820312 0)"/>
     <use xlink:href="#DejaVuSansMono-20" transform="translate(301.025391 0)"/>
     <use xlink:href="#DejaVuSansMono-49" transform="translate(361.230469 0)"/>
     <use xlink:href="#DejaVuSansMono-4e" transform="translate(421.435547 0)"/>
     <use xlink:href="#DejaVuSansMono-d" transform="translate(481.640625 0)"/>
    </g>
    <!-- 00:00:00 -->
    <g style="fill: #ffc34a; opacity: 0.67" transform="translate(569.151875 459.797269) scale(0.09 -0.09)">
     <defs>
      <path id="DejaVuSansMono-30" d="M 1509 2344 
Q 1509 2516 1629 2641 
Q 1750 2766 1919 2766 
Q 2094 2766 2219 2641 
Q 2344 2516 2344 2344 
Q 2344 2169 2220 2047 
Q 2097 1925 1919 1925 
Q 1744 1925 1626 2044 
Q 1509 2163 1509 2344 
z
M 1925 4250 
Q 1484 4250 1267 3775 
Q 1050 3300 1050 2328 
Q 1050 1359 1267 884 
Q 1484 409 1925 409 
Q 2369 409 2586 884 
Q 2803 1359 2803 2328 
Q 2803 3300 2586 3775 
Q 2369 4250 1925 4250 
z
M 1925 4750 
Q 2672 4750 3055 4137 
Q 3438 3525 3438 2328 
Q 3438 1134 3055 521 
Q 2672 -91 1925 -91 
Q 1178 -91 797 521 
Q 416 1134 416 2328 
Q 416 3525 797 4137 
Q 1178 4750 1925 4750 
z
" transform="scale(0.015625)"/>
      <path id="DejaVuSansMono-3a" d="M 1528 3322 
L 2316 3322 
L 2316 2375 
L 1528 2375 
L 1528 3322 
z
M 1528 953 
L 2316 953 
L 2316 0 
L 1528 0 
L 1528 953 
z
" transform="scale(0.015625)"/>
     </defs>
     <use xlink:href="#DejaVuSansMono-30"/>
     <use xlink:href="#DejaVuSansMono-30" transform="translate(60.205078 0)"/>
     <use xlink:href="#DejaVuSansMono-3a" transform="translate(120.410156 0)"/>
     <use xlink:href="#DejaVuSansMono-30" transform="translate(180.615234 0)"/>
     <use xlink:href="#DejaVuSansMono-30" transform="translate(240.820312 0)"/>
     <use xlink:href="#DejaVuSansMono-3a" transform="translate(301.025391 0)"/>
     <use xlink:href="#DejaVuSansMono-30" transform="translate(361.230469 0)"/>
     <use xlink:href="#DejaVuSansMono-30" transform="translate(421.435547 0)"/>
    </g>
   </g>
   <g id="patch_86">
    <path d="M 995.720833 339.223828 
C 998.117222 339.223828 1000.415783 338.27302 1002.110286 336.58081 
C 1003.804789 334.888599 1004.756884 332.593147 1004.756884 330.2 
C 1004.756884 327.806853 1003.804789 325.511401 1002.110286 323.81919 
C 1000.415783 322.12698 998.117222 321.176172 995.720833 321.176172 
C 993.324445 321.176172 991.025883 322.12698 989.331381 323.81919 
C 987.636878 325.511401 986.684783 327.806853 986.684783 330.2 
C 986.684783 332.593147 987.636878 334.888599 989.331381 336.58081 
C 991.025883 338.27302 993.324445 339.223828 995.720833 339.223828 
z
" clip-path="url(#pe166bf8058)" style="fill: #7946b8; opacity: 0.77"/>
   </g>
   <g id="patch_87">
    <path d="M 975.430352 317.356958 
C 977.652156 317.356958 979.783259 316.47542 981.354312 314.906492 
C 982.925365 313.337565 983.808097 311.209344 983.808097 308.990545 
C 983.808097 306.771747 982.925365 304.643525 981.354312 303.074598 
C 979.783259 301.50567 977.652156 300.624132 975.430352 300.624132 
C 973.208548 300.624132 971.077444 301.50567 969.506391 303.074598 
C 967.935339 304.643525 967.052607 306.771747 967.052607 308.990545 
C 967.052607 311.209344 967.935339 313.337565 969.506391 314.906492 
C 971.077444 316.47542 973.208548 317.356958 975.430352 317.356958 
z
" clip-path="url(#pe166bf8058)" style="fill: #7946b8; opacity: 0.77"/>
   </g>
   <g id="patch_88">
    <path d="M 947.975956 357.543713 
C 950.562779 357.543713 953.044 356.517348 954.87316 354.690662 
C 956.70232 352.863976 957.730076 350.386111 957.730076 347.802788 
C 957.730076 345.219464 956.70232 342.741599 954.87316 340.914913 
C 953.044 339.088228 950.562779 338.061862 947.975956 338.061862 
C 945.389134 338.061862 942.907912 339.088228 941.078752 340.914913 
C 939.249593 342.741599 938.221837 345.219464 938.221837 347.802788 
C 938.221837 350.386111 939.249593 352.863976 941.078752 354.690662 
C 942.907912 356.517348 945.389134 357.543713 947.975956 357.543713 
z
" clip-path="url(#pe166bf8058)" style="fill: #7946b8; opacity: 0.77"/>
   </g>
   <g id="patch_89">
    <path d="M 1023.287596 370.989853 
C 1026.061834 370.989853 1028.72282 369.889127 1030.684503 367.930098 
C 1032.646185 365.971069 1033.748402 363.313682 1033.748402 360.543197 
C 1033.748402 357.772711 1032.646185 355.115324 1030.684503 353.156295 
C 1028.72282 351.197266 1026.061834 350.096541 1023.287596 350.096541 
C 1020.513358 350.096541 1017.852372 351.197266 1015.890689 353.156295 
C 1013.929007 355.115324 1012.82679 357.772711 1012.82679 360.543197 
C 1012.82679 363.313682 1013.929007 365.971069 1015.890689 367.930098 
C 1017.852372 369.889127 1020.513358 370.989853 1023.287596 370.989853 
z
" clip-path="url(#pe166bf8058)" style="fill: #7946b8; opacity: 0.77"/>
   </g>
   <g id="patch_90">
    <path d="M 1013.630141 288.102062 
C 1015.844175 288.102062 1017.967826 287.223607 1019.533385 285.660166 
C 1021.098943 284.096725 1021.978588 281.975947 1021.978588 279.764908 
C 1021.978588 277.553868 1021.098943 275.43309 1019.533385 273.869649 
C 1017.967826 272.306208 1015.844175 271.427753 1013.630141 271.427753 
C 1011.416107 271.427753 1009.292456 272.306208 1007.726898 273.869649 
C 1006.161339 275.43309 1005.281694 277.553868 1005.281694 279.764908 
C 1005.281694 281.975947 1006.161339 284.096725 1007.726898 285.660166 
C 1009.292456 287.223607 1011.416107 288.102062 1013.630141 288.102062 
z
" clip-path="url(#pe166bf8058)" style="fill: #7946b8; opacity: 0.77"/>
   </g>
   <g id="patch_91">
    <path d="M 901.370208 326.9926 
C 903.881283 326.9926 906.289849 325.996289 908.065447 324.223093 
C 909.841045 322.449897 910.838706 320.044589 910.838706 317.536911 
C 910.838706 315.029233 909.841045 312.623925 908.065447 310.850729 
C 906.289849 309.077532 903.881283 308.081221 901.370208 308.081221 
C 898.859134 308.081221 896.450568 309.077532 894.67497 310.850729 
C 892.899372 312.623925 891.901711 315.029233 891.901711 317.536911 
C 891.901711 320.044589 892.899372 322.449897 894.67497 324.223093 
C 896.450568 325.996289 898.859134 326.9926 901.370208 326.9926 
z
" clip-path="url(#pe166bf8058)" style="fill: #7946b8; opacity: 0.77"/>
   </g>
   <g id="patch_92">
    <path d="M 991.383656 419.382017 
C 994.087528 419.382017 996.681021 418.30921 998.592947 416.39987 
C 1000.504873 414.49053 1001.579133 411.900545 1001.579133 409.200331 
C 1001.579133 406.500116 1000.504873 403.910131 998.592947 402.000791 
C 996.681021 400.091451 994.087528 399.018644 991.383656 399.018644 
C 988.679783 399.018644 986.086291 400.091451 984.174364 402.000791 
C 982.262438 403.910131 981.188178 406.500116 981.188178 409.200331 
C 981.188178 411.900545 982.262438 414.49053 984.174364 416.39987 
C 986.086291 418.30921 988.679783 419.382017 991.383656 419.382017 
z
" clip-path="url(#pe166bf8058)" style="fill: #7946b8; opacity: 0.77"/>
   </g>
   <g id="patch_93">
    <path d="M 1086.301695 308.021941 
C 1089.027994 308.021941 1091.642997 306.940236 1093.570782 305.015059 
C 1095.498566 303.089883 1096.581736 300.478416 1096.581736 297.755805 
C 1096.581736 295.033194 1095.498566 292.421728 1093.570782 290.496551 
C 1091.642997 288.571374 1089.027994 287.48967 1086.301695 287.48967 
C 1083.575396 287.48967 1080.960393 288.571374 1079.032608 290.496551 
C 1077.104824 292.421728 1076.021654 295.033194 1076.021654 297.755805 
C 1076.021654 300.478416 1077.104824 303.089883 1079.032608 305.015059 
C 1080.960393 306.940236 1083.575396 308.021941 1086.301695 308.021941 
z
" clip-path="url(#pe166bf8058)" style="fill: #7946b8; opacity: 0.77"/>
   </g>
   <g id="patch_94">
    <path d="M 908.02192 257.017249 
C 910.325967 257.017249 912.535957 256.103079 914.165165 254.476076 
C 915.794372 252.849072 916.70978 250.642071 916.70978 248.34114 
C 916.70978 246.040209 915.794372 243.833209 914.165165 242.206205 
C 912.535957 240.579201 910.325967 239.665032 908.02192 239.665032 
C 905.717872 239.665032 903.507882 240.579201 901.878675 242.206205 
C 900.249467 243.833209 899.334059 246.040209 899.334059 248.34114 
C 899.334059 250.642071 900.249467 252.849072 901.878675 254.476076 
C 903.507882 256.103079 905.717872 257.017249 908.02192 257.017249 
z
" clip-path="url(#pe166bf8058)" style="fill: #7946b8; opacity: 0.77"/>
   </g>
   <g id="patch_95">
    <path d="M 898.551173 429.197948 
C 900.846763 429.197948 903.048641 428.287134 904.671868 426.666102 
C 906.295096 425.045071 907.207143 422.846171 907.207143 420.553686 
C 907.207143 418.261201 906.295096 416.062301 904.671868 414.441269 
C 903.048641 412.820238 900.846763 411.909424 898.551173 411.909424 
C 896.255582 411.909424 894.053704 412.820238 892.430477 414.441269 
C 890.807249 416.062301 889.895202 418.261201 889.895202 420.553686 
C 889.895202 422.846171 890.807249 425.045071 892.430477 426.666102 
C 894.053704 428.287134 896.255582 429.197948 898.551173 429.197948 
z
" clip-path="url(#pe166bf8058)" style="fill: #7946b8; opacity: 0.77"/>
   </g>
   <g id="text_5">
    <!-- THINKING -->
    <g style="fill: #c58dff; opacity: 0.98" transform="translate(949.588333 489.269028) scale(0.12 -0.12)">
     <defs>
      <path id="DejaVuSans-Bold-48" d="M 588 4666 
L 1791 4666 
L 1791 2888 
L 3566 2888 
L 3566 4666 
L 4769 4666 
L 4769 0 
L 3566 0 
L 3566 1978 
L 1791 1978 
L 1791 0 
L 588 0 
L 588 4666 
z
" transform="scale(0.015625)"/>
      <path id="DejaVuSans-Bold-4b" d="M 588 4666 
L 1791 4666 
L 1791 2963 
L 3525 4666 
L 4922 4666 
L 2675 2456 
L 5153 0 
L 3647 0 
L 1791 1838 
L 1791 0 
L 588 0 
L 588 4666 
z
" transform="scale(0.015625)"/>
     </defs>
     <use xlink:href="#DejaVuSans-Bold-54"/>
     <use xlink:href="#DejaVuSans-Bold-48" transform="translate(68.212891 0)"/>
     <use xlink:href="#DejaVuSans-Bold-49" transform="translate(151.904297 0)"/>
     <use xlink:href="#DejaVuSans-Bold-4e" transform="translate(189.111328 0)"/>
     <use xlink:href="#DejaVuSans-Bold-4b" transform="translate(272.802734 0)"/>
     <use xlink:href="#DejaVuSans-Bold-49" transform="translate(350.292969 0)"/>
     <use xlink:href="#DejaVuSans-Bold-4e" transform="translate(387.5 0)"/>
     <use xlink:href="#DejaVuSans-Bold-47" transform="translate(471.191406 0)"/>
    </g>
   </g>
   <g id="text_6">
    <!-- COGNITION -->
    <g style="fill: #c58dff; opacity: 0.65" transform="translate(958.401068 457.600677) scale(0.09 -0.09)">
     <defs>
      <path id="DejaVuSansMono-47" d="M 3450 384 
Q 3197 150 2880 29 
Q 2563 -91 2194 -91 
Q 1306 -91 812 545 
Q 319 1181 319 2328 
Q 319 3472 819 4111 
Q 1319 4750 2209 4750 
Q 2503 4750 2772 4667 
Q 3041 4584 3291 4416 
L 3291 3769 
Q 3038 4009 2772 4123 
Q 2506 4238 2209 4238 
Q 1594 4238 1286 3761 
Q 978 3284 978 2328 
Q 978 1356 1276 889 
Q 1575 422 2194 422 
Q 2403 422 2561 470 
Q 2719 519 2847 622 
L 2847 1875 
L 2169 1875 
L 2169 2394 
L 3450 2394 
L 3450 384 
z
" transform="scale(0.015625)"/>
     </defs>
     <use xlink:href="#DejaVuSansMono-43"/>
     <use xlink:href="#DejaVuSansMono-4f" transform="translate(60.205078 0)"/>
     <use xlink:href="#DejaVuSansMono-47" transform="translate(120.410156 0)"/>
     <use xlink:href="#DejaVuSansMono-4e" transform="translate(180.615234 0)"/>
     <use xlink:href="#DejaVuSansMono-49" transform="translate(240.820312 0)"/>
     <use xlink:href="#DejaVuSansMono-54" transform="translate(301.025391 0)"/>
     <use xlink:href="#DejaVuSansMono-49" transform="translate(361.230469 0)"/>
     <use xlink:href="#DejaVuSansMono-4f" transform="translate(421.435547 0)"/>
     <use xlink:href="#DejaVuSansMono-4e" transform="translate(481.640625 0)"/>
    </g>
   </g>
   <g id="patch_96">
    <path d="M 7.2 604.391111 
L 381.908333 604.391111 
Q 390.533333 604.391111 390.533333 595.777778 
L 390.533333 64.622222 
Q 390.533333 56.008889 381.908333 56.008889 
L 7.2 56.008889 
Q -1.425 56.008889 -1.425 64.622222 
Q -1.425 604.391111 7.2 604.391111 
L 7.2 604.391111 
" clip-path="url(#pe166bf8058)" style="fill: none; opacity: 0.16; stroke: #222e39; stroke-width: 2.1; stroke-linejoin: miter"/>
   </g>
   <g id="patch_97">
    <path d="M 394.845833 604.391111 
L 769.554167 604.391111 
Q 778.179167 604.391111 778.179167 595.777778 
L 778.179167 64.622222 
Q 778.179167 56.008889 769.554167 56.008889 
L 394.845833 56.008889 
Q 386.220833 56.008889 386.220833 64.622222 
L 386.220833 595.777778 
Q 386.220833 604.391111 394.845833 604.391111 
L 394.845833 604.391111 
z
" clip-path="url(#pe166bf8058)" style="fill: none; opacity: 0.16; stroke: #222e39; stroke-width: 2.1; stroke-linejoin: miter"/>
   </g>
   <g id="patch_98">
    <path d="M 782.491667 604.391111 
L 1157.2 604.391111 
Q 1165.825 604.391111 1165.825 595.777778 
Q 1165.825 56.008889 1157.2 56.008889 
L 782.491667 56.008889 
Q 773.866667 56.008889 773.866667 64.622222 
L 773.866667 595.777778 
Q 773.866667 604.391111 782.491667 604.391111 
L 782.491667 604.391111 
" clip-path="url(#pe166bf8058)" style="fill: none; opacity: 0.16; stroke: #222e39; stroke-width: 2.1; stroke-linejoin: miter"/>
   </g>
  </g>
 </g>
 <defs>
  <clipPath id="pe166bf8058">
   <rect x="7.2" y="7.2" width="1150" height="646"/>
  </clipPath>
 </defs>
</svg>
